<?xml version="1.0" encoding="UTF-8" standalone="no"?>
<!DOCTYPE svg PUBLIC "-//W3C//DTD SVG 1.1//EN" "http://www.w3.org/Graphics/SVG/1.1/DTD/svg11.dtd">
<svg width="100%" height="100%" viewBox="0 0 2846 708" version="1.1" xmlns="http://www.w3.org/2000/svg" xmlns:xlink="http://www.w3.org/1999/xlink" xml:space="preserve" style="fill-rule:evenodd;clip-rule:evenodd;stroke-linejoin:round;stroke-miterlimit:2;">
    <g transform="matrix(12.8778,0,0,12.8727,3.05176e-05,0)">
        <path d="M130.154,0L133.289,0.038C133.318,1.771 133.379,26.622 133.333,26.703C133.256,27.887 131.727,30.458 130.82,31.246C130.738,31.317 130.367,32.03 130.367,32.03C130.377,32.004 130.159,0.017 130.154,0Z" style="fill:rgb(160,225,224);fill-rule:nonzero;"/>
    </g>
    <g transform="matrix(12.8778,0,0,12.8727,3.05176e-05,0)">
        <path d="M109.13,0.757C109.268,0.733 110.974,0.289 112.314,0.236C116.932,0.054 125.776,0.163 125.776,0.163C125.834,0.245 125.833,5.213 125.792,5.274C123.68,5.271 120.8,5.205 118.266,5.253C110.853,5.392 105.968,6.431 101.094,10.41C100.809,10.644 100.53,10.884 100.257,11.131C99.984,11.378 99.717,11.632 99.456,11.892C99.196,12.153 98.942,12.419 98.694,12.692C98.447,12.965 98.207,13.244 97.973,13.528C97.739,13.813 97.513,14.104 97.294,14.4C97.074,14.696 96.863,14.997 96.658,15.303C96.454,15.61 96.257,15.921 96.068,16.237C95.879,16.553 95.698,16.874 95.525,17.199C95.352,17.524 95.187,17.853 95.03,18.186C94.873,18.52 94.725,18.857 94.585,19.197C94.444,19.538 94.313,19.882 94.189,20.229C94.066,20.576 93.952,20.926 93.846,21.279C93.74,21.631 93.643,21.987 93.554,22.344C93.466,22.702 93.387,23.061 93.316,23.423C93.245,23.784 93.184,24.147 93.131,24.512C93.079,24.876 93.035,25.242 93,25.609C92.433,31.254 94.37,37.181 97.952,41.556C101.718,46.154 106.884,49.199 112.742,49.778C114.673,49.968 124.586,49.928 125.918,49.86C125.954,49.995 125.955,54.972 125.893,55.039L111.193,55C109.152,54.631 107.879,54.403 107.394,54.254C103.823,53.156 100.866,51.347 97.919,49.029C92.056,44.418 88.566,37.875 87.684,30.492C87.642,30.125 87.607,29.757 87.579,29.388C87.551,29.019 87.531,28.649 87.519,28.279C87.506,27.91 87.501,27.54 87.504,27.17C87.506,26.8 87.516,26.43 87.534,26.06C87.552,25.691 87.577,25.322 87.61,24.953C87.642,24.584 87.683,24.217 87.73,23.85C87.778,23.483 87.833,23.117 87.896,22.752C87.959,22.388 88.029,22.025 88.106,21.663C88.184,21.301 88.269,20.941 88.361,20.583C88.453,20.224 88.553,19.868 88.66,19.514C88.766,19.159 88.88,18.807 89.002,18.458C89.123,18.108 89.251,17.761 89.386,17.417C89.522,17.072 89.664,16.731 89.813,16.392C89.963,16.054 90.119,15.719 90.282,15.386C90.445,15.054 90.615,14.725 90.791,14.4C90.967,14.075 91.15,13.753 91.34,13.436C91.53,13.118 91.726,12.804 91.928,12.494C92.13,12.185 92.339,11.879 92.554,11.578C92.769,11.277 92.99,10.98 93.217,10.688C93.443,10.395 93.676,10.108 93.915,9.825C94.154,9.542 94.398,9.265 94.648,8.992C94.898,8.719 95.154,8.452 95.415,8.19C95.676,7.927 95.942,7.67 96.214,7.419C96.485,7.168 96.761,6.922 97.043,6.682C97.325,6.442 97.611,6.207 97.902,5.979C98.193,5.75 98.489,5.528 98.789,5.312C99.089,5.095 99.393,4.885 99.702,4.681C100.011,4.477 100.324,4.28 100.641,4.089C100.958,3.898 101.278,3.713 101.602,3.535C101.927,3.357 102.255,3.186 102.586,3.021C102.917,2.856 103.252,2.698 103.59,2.547C103.927,2.396 104.268,2.252 104.612,2.115C106.08,1.523 107.57,1.037 109.13,0.757Z" style="fill:rgb(27,188,189);fill-rule:nonzero;"/>
    </g>
    <g transform="matrix(12.8778,0,0,12.8727,1481.46,-0.599009)">
        <path d="M43.869,-0L46.825,-0.012C46.865,0.263 46.602,54.982 46.599,54.991L43.842,54.983C43.793,54.489 43.817,0.697 43.869,-0Z" style="fill:rgb(160,225,224);fill-rule:nonzero;"/>
    </g>
    <g transform="matrix(12.8778,0,0,12.8727,3.05176e-05,0)">
        <path d="M130.259,31.753C130.247,31.515 130.229,30.091 133.098,26.595C134.527,24.855 136.587,23.305 137.215,22.858C139.361,21.33 142.292,20.488 144.897,20.299C148.873,20.01 153.094,21.167 156.153,23.785C157.133,24.624 157.898,25.68 158.878,26.526C158.878,26.526 159.907,27.737 160.591,28.961C161.606,30.777 161.656,32.263 161.686,32.286L161.664,32.289C161.664,32.289 161.699,54.817 161.568,55L156.649,55C156.905,54.426 156.762,38.399 156.677,36.604C156.51,33.085 155.699,30.754 153.057,28.358C150.96,26.458 148.341,25.499 145.512,25.642C141.545,25.842 137.577,28.4 136.292,32.275C134.859,36.598 135.557,46.561 135.452,51.569C135.437,52.271 135.496,54.932 135.496,54.932L130.767,54.985L130.253,54.983C130.343,54.848 130.375,33.89 130.259,31.753Z" style="fill:rgb(27,188,189);fill-rule:nonzero;"/>
    </g>
    <g transform="matrix(12.8778,0,0,12.8727,3.05176e-05,0)">
        <path d="M182.86,24.816C187.656,25.025 191.942,25.953 195.312,29.635C198.214,32.805 199.325,36.616 199.135,40.858C198.948,45.053 197.063,48.643 193.977,51.462C193.365,52.02 192.331,53.022 190.912,53.643C189.145,54.416 186.988,54.774 186.702,55L170.381,54.986C170.466,54.646 170.594,50.157 170.465,49.878C175.034,49.878 183.792,50.287 186.211,49.628C187.752,49.208 189.62,47.962 190.816,46.911C192.683,45.27 193.813,43.134 193.972,40.633C193.994,40.318 194.001,40.002 193.992,39.686C193.983,39.37 193.959,39.055 193.919,38.741C193.879,38.428 193.823,38.117 193.752,37.809C193.681,37.501 193.596,37.197 193.495,36.897C193.394,36.597 193.279,36.303 193.149,36.015C193.019,35.727 192.875,35.445 192.718,35.171C192.56,34.897 192.389,34.632 192.205,34.374C192.022,34.117 191.826,33.87 191.617,33.632C189.259,30.964 186.384,30.458 182.972,30.188C183.017,30.118 182.913,24.897 182.86,24.816Z" style="fill:rgb(160,225,224);fill-rule:nonzero;"/>
    </g>
    <g transform="matrix(12.8778,0,0,12.8727,3.05176e-05,0)">
        <path d="M180.754,0.053L193.998,0.078C194.017,0.104 194.006,5.044 193.959,5.155C193.42,5.108 181.835,3.575 175.559,7.036C173.303,8.28 171.997,10.764 171.478,13.259C170.949,15.805 171.52,18.418 172.947,20.578C175.076,23.799 178.861,24.777 181.893,24.923C181.946,25.004 182.004,30.077 181.987,30.109C177.49,29.819 173.481,28.996 170.206,25.708C167.375,22.865 165.894,19.112 165.911,15.111C165.938,8.817 169.598,3.745 175.307,1.189C176.333,0.729 177.586,0.209 180.754,0.053Z" style="fill:rgb(27,188,189);fill-rule:nonzero;"/>
    </g>
    <g transform="matrix(12.8778,0,0,12.8727,3.05176e-05,0)">
        <path d="M211.423,0.721C212.043,0.271 212.85,0.067 213.812,0.067C214.561,0.325 214.97,0.624 215.188,0.947C215.188,0.947 215.336,16.405 215.492,16.725C215.513,16.766 220.054,16.759 220.075,16.759C220.165,16.761 220.165,19.336 220.165,19.336C220.021,19.359 215.916,19.336 215.651,19.347C215.663,19.367 215.828,27.91 215.813,27.923C215.5,27.912 213.35,27.907 213.044,27.835C212.892,27.799 213.044,19.511 212.836,19.172L212.822,19.149C212.328,19.216 203.042,19.212 201.646,19.168C201.238,19.386 199.891,18.682 200.042,17.263C200.264,15.179 211.418,0.764 211.423,0.721ZM212.76,2.794C212.039,3.581 205.329,12.622 203.489,15.66C203.408,15.792 203.16,16.21 203.283,16.393C203.449,16.637 204.014,16.641 203.976,16.727C204.02,16.842 212.022,16.73 212.927,16.706C212.979,16.596 212.937,2.805 212.76,2.794Z" style="fill:rgb(160,225,224);fill-rule:nonzero;"/>
    </g>
    <g transform="matrix(12.8778,0,0,12.8727,3.05176e-05,0)">
        <path d="M79.414,55L79.421,54.958C79.449,54.759 66.68,34.56 66.767,34.086C67.115,33.978 69.84,34.015 70.123,34.162C70.793,34.511 83.136,54.757 83,55.024L79.414,55Z" style="fill:rgb(160,225,224);fill-rule:nonzero;"/>
    </g>
    <g transform="matrix(12.8778,0,0,12.8727,3.05176e-05,0)">
        <path d="M48.937,0.148L69.422,0C69.554,0.084 71.672,0.31 73.311,0.941C75.407,1.749 77.16,3.028 77.689,3.477C81.04,6.324 83.28,10.448 83.628,14.852C83.952,18.951 82.447,23.239 79.79,26.352C75.559,31.309 70.815,31.817 64.919,31.844C64.301,31.846 63.106,31.845 62.476,31.842C62.418,31.842 63.954,31.846 63.897,31.846C63.488,31.844 48.943,31.747 48.796,31.758C48.828,29.878 48.888,28.174 48.849,26.293C49.3,26.362 55.708,26.431 60.163,26.466C62.077,26.481 63.631,26.49 64.197,26.489C68.309,26.485 72.264,26.255 75.322,23.183C77.11,21.387 78.413,18.447 78.395,15.883C78.377,13.243 76.894,10.291 75.021,8.46C74.689,8.137 74.338,7.838 73.966,7.563C73.594,7.287 73.206,7.038 72.801,6.814C72.396,6.59 71.977,6.395 71.546,6.227C71.115,6.059 70.675,5.92 70.225,5.811C68.236,5.328 51.33,5.511 48.893,5.532C48.883,5.31 48.908,0.387 48.937,0.148Z" style="fill:rgb(27,188,189);fill-rule:nonzero;"/>
    </g>
    <g transform="matrix(12.8778,0,0,12.8727,3.05176e-05,0)">
        <path d="M8.005,26.171C8.177,26.216 18.174,26.204 18.452,26.13C18.447,26.244 18.389,31.535 18.397,31.868C18.22,31.923 8.263,31.97 7.994,31.996C7.988,31.743 7.991,26.703 8.005,26.171Z" style="fill:rgb(160,225,224);fill-rule:nonzero;"/>
    </g>
    <g transform="matrix(12.8778,0,0,12.8727,3.05176e-05,0)">
        <path d="M0,0L44.096,0C43.88,2.904 43.928,53.616 44.065,55L39.923,55L34.459,55.05C34.458,55.048 34.515,46.207 34.517,45.276L34.552,26.379C34.557,23.017 34.795,19.437 33.996,16.153C33.475,14.007 32.359,11.988 30.913,10.327C30.61,9.975 30.29,9.64 29.954,9.321C29.618,9.002 29.266,8.7 28.9,8.416C28.534,8.132 28.154,7.867 27.762,7.62C27.369,7.374 26.965,7.147 26.549,6.941C26.134,6.735 25.71,6.55 25.276,6.386C24.842,6.222 24.402,6.08 23.954,5.96C23.506,5.84 23.053,5.743 22.596,5.668C22.138,5.593 21.678,5.541 21.215,5.511C17.278,5.245 13.585,6.4 10.607,9.005C8.493,10.855 6.983,13.169 6.266,15.892C5.296,19.573 5.742,24.052 5.749,27.842C5.763,35.676 5.934,53.992 5.871,54.944L0.609,55L0,55L0,0ZM21.751,0C22.57,0.034 23.173,0.116 24.112,0.328C25.101,0.551 26.767,1.113 26.817,1.129C31.568,2.652 35.556,6.458 37.807,10.871C38.994,13.199 39.554,15.68 39.848,18.262C40.428,23.36 40.009,28.922 40.005,34.062C39.999,40.563 40.139,54.557 40.116,55L44.065,55C43.746,51.766 43.689,5.471 44.096,0L21.751,0ZM0,0L0,17.668L0.496,17.99C0.454,16.494 0.772,15.017 1.242,13.605C3.148,7.875 7.874,3.018 13.617,1.05C13.846,0.972 14.925,0.556 16.013,0.33C17.092,0.106 18.181,0.072 18.324,0L0,0ZM0,17.668L0,55L0.609,55C0.527,54.527 0.496,17.99 0.496,17.99L0,17.668Z" style="fill:rgb(27,188,189);fill-rule:nonzero;"/>
    </g>
    <g transform="matrix(12.8778,0,0,12.8727,3.05176e-05,0)">
        <path d="M43.869,-0L46.825,-0.012C46.865,0.263 46.602,54.982 46.599,54.991L43.842,54.983C43.793,54.489 43.817,0.697 43.869,-0Z" style="fill:rgb(160,225,224);fill-rule:nonzero;"/>
    </g>
</svg>
