<?xml version="1.0" encoding="UTF-8" standalone="no"?>
<!DOCTYPE svg PUBLIC "-//W3C//DTD SVG 1.1//EN" "http://www.w3.org/Graphics/SVG/1.1/DTD/svg11.dtd">
<svg width="100%" height="100%" viewBox="0 0 512 513" version="1.1" xmlns="http://www.w3.org/2000/svg" xmlns:xlink="http://www.w3.org/1999/xlink" xml:space="preserve" style="fill-rule:evenodd;clip-rule:evenodd;stroke-linejoin:round;stroke-miterlimit:2;">
    <path d="M83.327,359.792C79.525,355.989 79.525,349.82 83.327,346.018C87.129,342.216 93.298,342.216 97.1,346.018L197.925,446.839C205.139,437.372 211.153,427.916 216.141,418.463L136.305,338.623C132.502,334.821 132.502,328.652 136.305,324.85C140.107,321.047 146.276,321.047 150.078,324.85L224.787,399.563C229.539,387.42 232.804,375.269 234.961,363.089C234.727,362.896 234.502,362.691 234.288,362.475L197.509,325.7C193.706,321.898 193.706,315.729 197.509,311.927C201.311,308.124 207.48,308.124 211.282,311.927L237.92,338.561C239.367,317.646 238.314,296.6 236.687,275.324C203.026,272.744 169.976,271.592 137.298,279.355C103.685,287.343 70.135,304.848 36.139,340.144C33.921,342.446 30.202,342.518 27.898,340.302L27.813,340.228L1.709,314.131C-0.555,311.865 -0.555,308.138 1.709,305.872L1.933,305.658C42.754,263.564 82.812,243.151 122.38,234.122C159.832,225.579 196.567,227.312 233.08,230.448C228.045,159.089 230.717,84.457 305.724,2.327L306.262,1.709C308.528,-0.555 312.255,-0.555 314.521,1.709L340.622,27.809C342.86,30.066 342.893,33.717 340.67,36.003C336.443,40.33 332.358,44.792 328.42,49.383L415.946,136.908C419.748,140.71 419.748,146.879 415.946,150.682C412.144,154.484 405.974,154.484 402.172,150.682L316.244,64.753C308.673,75.152 302.437,85.524 297.328,95.871L369.284,167.827C373.086,171.629 373.086,177.798 369.284,181.6C365.482,185.403 359.313,185.403 355.511,181.6L289.057,115.147C284.166,128.468 280.934,141.767 278.913,155.04L279.009,155.132L308.124,184.247C311.927,188.049 311.927,194.218 308.124,198.02C304.322,201.823 298.153,201.823 294.351,198.02L276.418,180.088C275.483,198.359 276.3,216.612 277.698,234.884C309.272,237.118 341.642,237.317 373.951,229.561C407.885,221.412 442.068,204.407 475.755,171.611L475.954,171.401C478.221,169.138 481.946,169.138 484.213,171.401L510.476,197.704C512.628,200.059 512.464,203.767 510.112,205.923C468.106,244.402 427.364,263.859 387.953,273.013C351.163,281.552 315.743,281.081 281.56,278.752C288.049,354.079 288.748,430.179 206.38,510.075L206.151,510.318C203.884,512.581 200.159,512.581 197.892,510.318L171.721,484.129C169.505,481.825 169.577,478.106 171.879,475.888C176.563,471.387 181.083,466.719 185.432,461.893L83.327,359.792Z" style="fill-rule:nonzero;"/>
</svg>
