<?xml version="1.0" encoding="utf-8"?>
<!DOCTYPE svg PUBLIC "-//W3C//DTD SVG 1.0//EN" "http://www.w3.org/TR/2001/REC-SVG-20010904/DTD/svg10.dtd">
<svg version="1.0" xmlns="http://www.w3.org/2000/svg" width="600px" height="600px" viewBox="0 0 600 600" preserveAspectRatio="xMidYMid meet">
 <g fill="#c5f9cf">
  <path d="M0 534 l0 -66.05 4.40 -2 c2.40 -1.10 5.05 -2.30 5.85 -2.70 1.45 -0.60 4.10 -1.80 10 -4.50 1.50 -0.70 3.95 -1.80 5.40 -2.45 1.40 -0.65 4.10 -1.90 6 -2.75 1.85 -0.85 3.45 -1.55 3.55 -1.55 0.20 0 7.95 -3.55 8.20 -3.75 0.10 -0.10 -0.75 -2 -1.80 -4.30 -1.10 -2.30 -2.15 -4.75 -2.35 -5.40 -0.35 -1.15 -3 -7.10 -5.50 -12.30 -0.65 -1.35 -2.45 -5.30 -3.95 -8.75 -1.45 -3.45 -3.60 -8.20 -4.75 -10.60 -1.55 -3.25 -2.05 -4.95 -2.05 -6.80 0 -2.45 0.30 -3.30 4.30 -12 0.95 -2.05 1.70 -3.90 1.70 -4.15 0 -0.25 0.25 -0.45 0.50 -0.45 0.30 0 0.50 -0.30 0.50 -0.65 0 -0.60 5.90 -14.40 7.05 -16.50 1.70 -3.10 6.35 -14.05 6.15 -14.40 -0.15 -0.25 -0.50 -0.45 -0.75 -0.45 -0.25 0 -1.90 -0.65 -3.60 -1.45 -1.70 -0.80 -7.95 -3.65 -13.85 -6.30 -10.50 -4.75 -14 -6.35 -21.40 -9.75 -3.55 -1.65 -3.60 -1.65 -3.60 -3.55 0 -1.50 0.20 -1.95 0.80 -1.95 0.70 0 13.95 5.85 28.95 12.70 1.95 0.90 4.50 2.05 5.70 2.60 1.25 0.50 4.50 2 7.25 3.30 5 2.30 5.05 2.35 5.20 4.20 0.10 1 -0.15 2.55 -0.55 3.40 -0.45 0.85 -1.60 3.50 -2.65 5.95 -1 2.40 -2 4.35 -2.20 4.35 -0.25 0 -0.55 0.60 -0.70 1.40 -0.45 1.85 -6.40 15.30 -6.90 15.50 -0.20 0.10 -0.40 0.60 -0.40 1.10 0 0.50 -0.30 1.25 -0.65 1.60 -0.40 0.35 -0.85 1.25 -1 1.95 -0.20 0.75 -1.20 3.20 -2.25 5.50 -1.05 2.30 -2.35 5.15 -2.85 6.30 l-0.90 2.15 6.40 14.10 c3.50 7.80 8.20 18.20 10.40 23.15 2.20 4.95 4.05 9.05 4.10 9.15 0.05 0.10 1.35 -0.40 2.80 -1.05 1.50 -0.70 7.30 -3.30 12.95 -5.85 18.75 -8.45 29.75 -13.45 32 -14.60 l2.25 -1.15 0.25 -25.40 0.25 -25.45 17 -7.70 c9.35 -4.25 20.60 -9.35 25 -11.30 4.40 -1.95 8.15 -3.70 8.35 -3.85 0.25 -0.25 -6.05 -15.05 -11.80 -27.80 -0.40 -0.80 -2.65 -5.95 -5.05 -11.35 l-4.35 -9.90 -29.55 -0.10 -29.60 -0.15 -7 -15.50 c-3.90 -8.50 -8.90 -19.55 -11.15 -24.50 -3.25 -7.20 -4.25 -8.95 -4.95 -8.85 -0.50 0.10 -2.75 1.05 -5.05 2.15 -2.25 1.05 -4.20 1.95 -4.30 1.95 -0.15 0 -2.60 1.10 -5.55 2.50 -2.95 1.35 -5.40 2.50 -5.50 2.50 -0.10 0 -2.05 0.85 -4.35 1.95 -2.25 1.05 -6.05 2.75 -8.40 3.80 -2.35 1.05 -5.35 2.40 -6.70 3.05 -1.40 0.65 -3.15 1.20 -3.90 1.20 -1.40 0 -1.45 -0.10 -1.30 -2 l0.15 -2.05 12.75 -5.75 c7 -3.15 13.45 -6.05 14.30 -6.45 0.80 -0.40 2.95 -1.35 4.75 -2.15 1.75 -0.80 4.90 -2.25 6.95 -3.20 2.05 -1 4 -1.85 4.30 -1.95 0.40 -0.15 0 -1.50 -1.15 -3.95 -0.95 -2.05 -2.05 -4.40 -2.40 -5.25 -0.40 -0.80 -1.60 -3.50 -2.70 -5.90 -1.15 -2.45 -2.05 -4.50 -2.05 -4.60 0 -0.10 -1.15 -2.55 -2.50 -5.50 -1.40 -2.95 -2.50 -5.40 -2.50 -5.50 0 -0.10 -0.85 -2.05 -1.95 -4.35 -6.05 -13.05 -6.10 -13.10 -3.10 -19.50 1.05 -2.25 3.10 -6.75 4.55 -9.90 1.45 -3.15 3.30 -7.20 4.10 -9 0.85 -1.80 2.05 -4.45 2.70 -5.90 0.65 -1.40 1.75 -3.80 2.40 -5.25 0.65 -1.40 1.90 -4.15 2.75 -6.10 0.85 -1.90 1.80 -3.90 2.05 -4.35 0.30 -0.50 0.50 -1 0.50 -1.15 0 -0.20 -8.30 -4.25 -8.80 -4.25 -0.20 0 -5.90 -2.55 -14.35 -6.45 -1.85 -0.85 -3.45 -1.55 -3.55 -1.55 -0.10 0 -1.85 -0.75 -3.90 -1.70 -3.75 -1.75 -7.55 -3.45 -11.25 -5.05 l-2.15 -0.95 0 -65.90 0 -65.90 13.40 0 13.35 0 1.20 2.90 c0.70 1.55 1.95 4.45 2.85 6.35 0.90 1.95 2.20 4.80 2.90 6.35 0.70 1.60 1.85 4.10 2.50 5.50 0.65 1.45 1.70 3.80 2.30 5.15 0.60 1.40 1.65 3.70 2.30 5.10 0.65 1.45 1.80 3.95 2.50 5.50 0.70 1.60 1.95 4.30 2.75 6 l1.40 3.15 2.15 -0.95 c2.55 -1.10 36.90 -16.60 42.60 -19.25 2.15 -1 4.25 -1.80 4.60 -1.80 0.60 0 0.70 -2.15 0.70 -12 l0 -12 2 0 2 0 0 11.75 0 11.75 1.30 0.50 c0.70 0.30 2.45 1.05 3.85 1.70 1.45 0.65 7.20 3.25 12.85 5.80 5.65 2.55 12.15 5.50 14.40 6.55 2.30 1.10 4.25 1.95 4.35 1.95 0.10 0 2.55 1.15 5.50 2.50 7.45 3.50 7.35 3.50 8.45 0.90 0.50 -1.20 1.60 -3.60 2.45 -5.40 0.80 -1.80 1.95 -4.35 2.60 -5.75 1.90 -4.25 3.55 -7.90 4.90 -10.75 0.70 -1.50 1.75 -3.85 2.35 -5.25 1.50 -3.45 6.20 -13.70 7 -15.25 0.30 -0.65 4 -0.75 27.80 -0.90 l27.45 -0.10 1.25 3 c0.70 1.65 1.40 3 1.65 3 0.20 0 0.35 0.40 0.35 0.90 0 0.45 0.45 1.60 1 2.50 0.55 0.90 1 1.80 1 2.05 0 0.25 0.95 2.45 2.05 4.90 1.15 2.40 2.90 6.30 3.95 8.65 2.70 6.15 4.15 9.20 4.45 9.50 0.20 0.15 0.60 1.15 1 2.25 0.40 1.05 1.45 3.60 2.40 5.60 l1.65 3.60 2.65 -1.20 c1.40 -0.60 12.60 -5.65 24.80 -11.20 18.65 -8.40 22.60 -10.05 24.55 -10.05 1.90 0 4.55 1 14.05 5.30 6.45 2.90 17.45 7.90 24.45 11.05 7 3.15 12.90 5.85 13.10 5.95 0.25 0.15 3.90 -6.85 3.90 -7.55 0 -0.10 1 -2.25 2.20 -4.85 1.20 -2.55 2.90 -6.35 3.80 -8.40 0.90 -2.05 2.60 -5.85 3.80 -8.40 1.20 -2.60 2.20 -4.75 2.20 -4.85 0 -0.10 1.15 -2.55 2.50 -5.50 1.40 -2.95 2.50 -5.55 2.50 -5.80 0 -0.30 10.80 -0.40 27.55 -0.35 23.95 0.15 27.65 0.25 27.95 0.90 0.55 1.05 3.45 7.35 4.50 9.75 0.50 1.10 1.45 3.25 2.15 4.75 0.70 1.50 1.75 3.90 2.35 5.25 0.60 1.40 1.80 3.95 2.60 5.75 1.70 3.65 3.50 7.65 5 11 0.55 1.25 1.45 3.10 1.95 4.15 0.55 1.10 0.95 2.25 0.95 2.60 0 1.20 1.15 1.10 4.10 -0.35 1.60 -0.75 3 -1.40 3.10 -1.40 0.15 0 5.50 -2.40 11.90 -5.30 6.40 -2.95 15.05 -6.85 19.15 -8.70 4.15 -1.85 8.80 -4 10.40 -4.75 l2.85 -1.35 0 -11.20 0 -11.20 50.75 0 50.75 0 0 65.75 c0 39.85 -0.20 65.75 -0.45 65.75 -0.25 0 -2.85 1.10 -5.80 2.50 -2.95 1.40 -5.40 2.50 -5.55 2.50 -0.10 0 -1.70 0.70 -3.55 1.55 -1.90 0.85 -4.65 2.15 -6.15 2.80 -1.50 0.70 -4.85 2.25 -7.40 3.45 -2.55 1.20 -4.75 2.20 -4.85 2.20 -0.15 0 -1.75 0.70 -3.60 1.55 -1.90 0.85 -4.35 2 -5.55 2.50 -1.20 0.50 -2.05 1.10 -1.95 1.30 0.10 0.25 0.60 1.30 1.10 2.40 0.45 1.10 1.75 3.90 2.85 6.25 1.10 2.35 2.40 5.15 2.90 6.25 0.50 1.10 1.45 3.25 2.15 4.75 0.70 1.50 1.75 3.90 2.35 5.25 0.60 1.40 1.75 3.85 2.50 5.50 0.75 1.65 1.90 4.15 2.50 5.50 1.70 3.90 3.55 7.90 4.05 8.85 0.60 1.15 0.60 5.15 0 6.30 -0.25 0.45 -0.90 1.90 -1.50 3.25 -3.05 6.80 -4.35 9.75 -6.95 15.35 -0.80 1.80 -1.85 4.15 -2.35 5.25 -0.45 1.10 -1.50 3.35 -2.25 5 -1.45 3.15 -3.15 6.80 -5.30 11.65 -0.70 1.55 -1.50 3.25 -1.75 3.70 -0.30 0.60 -0.30 0.90 0.05 0.90 0.50 0 3.25 1.20 10 4.35 2.05 0.95 5.80 2.65 8.25 3.75 2.50 1.10 5.85 2.60 7.50 3.35 1.65 0.80 3.80 1.75 4.75 2.15 2.25 1 6.35 2.90 10.65 4.85 3.20 1.45 3.35 1.60 3.35 3.30 0 1.55 -0.15 1.75 -1.30 1.75 -1.40 0 -2.10 -0.30 -23.45 -10 -7.95 -3.65 -18.20 -8.25 -22.75 -10.25 -9.50 -4.20 -23.65 -10.55 -40.70 -18.30 -6.55 -3 -12.25 -5.45 -12.65 -5.45 -0.40 0 -1.65 0.40 -2.80 0.95 -1.15 0.50 -3.20 1.45 -4.60 2.05 -1.35 0.60 -3.60 1.60 -5 2.25 -1.35 0.60 -3.30 1.45 -4.25 1.90 -1.65 0.70 -3.75 1.65 -10.10 4.55 -1.45 0.65 -3.75 1.70 -5.15 2.30 -1.35 0.60 -3.75 1.65 -5.25 2.35 -1.50 0.70 -3.65 1.65 -4.75 2.15 -4.70 2.10 -7.75 3.60 -7.75 3.80 0 0.10 4.85 10.85 10.75 23.85 8.85 19.45 10.75 24.10 10.75 25.90 0 2.45 -0.20 2.75 -15 23.75 -1.25 1.75 -3.20 4.60 -4.40 6.30 -1.20 1.75 -4.20 6 -6.65 9.55 -2.45 3.50 -4.45 6.45 -4.45 6.60 0 0.10 0.75 0.55 1.65 0.95 0.85 0.40 3.60 1.65 6 2.75 2.45 1.15 4.50 2.05 4.60 2.05 0.10 0 2.55 1.10 5.50 2.50 2.95 1.40 5.40 2.50 5.50 2.50 0.10 0 2.55 1.15 5.45 2.50 2.90 1.40 5.40 2.50 5.50 2.50 0.15 0 1.80 0.70 3.65 1.55 3.90 1.80 7.40 3.40 10.65 4.85 1.25 0.55 4 1.80 6.20 2.80 4.20 1.95 4.85 2.05 6.20 1.30 0.45 -0.25 2.65 -1.30 4.85 -2.30 3.85 -1.75 46.45 -21.05 49.50 -22.45 8.05 -3.65 14.05 -6.25 14.55 -6.25 0.35 0 0.70 -0.20 0.80 -0.40 0.10 -0.20 1.75 -1.10 3.65 -1.95 1.95 -0.85 7.75 -3.50 13 -5.85 5.20 -2.35 10.10 -4.30 10.85 -4.30 1.30 0 1.40 0.15 1.40 1.90 0 1.85 -0.10 2 -2.60 3.10 -1.45 0.65 -7 3.15 -12.35 5.60 -5.35 2.40 -10.10 4.40 -10.60 4.40 -0.45 0 -0.95 0.20 -1.05 0.45 -0.10 0.30 -3.95 2.20 -8.65 4.30 -4.65 2.10 -8.65 3.95 -8.85 4.15 -0.20 0.20 0 1.15 0.45 2.10 0.45 0.95 1.70 3.65 2.80 6 1.85 4 2.45 5.40 4.80 10.65 0.50 1.15 1.50 3.35 2.20 4.85 0.70 1.50 1.75 3.90 2.35 5.25 0.60 1.40 1.75 3.85 2.50 5.50 0.75 1.65 1.90 4.15 2.50 5.50 0.60 1.40 1.40 3.15 1.80 3.95 1 2.10 0.85 5.85 -0.25 8.15 -0.55 1.05 -1.70 3.50 -2.60 5.40 -0.85 1.95 -2.15 4.75 -2.80 6.25 -1.90 4.10 -3.65 8 -4.65 10.25 -0.50 1.10 -1.55 3.45 -2.40 5.25 -2.35 5.10 -3.90 8.55 -5.10 11.25 -0.60 1.40 -1.40 3.10 -1.75 3.80 -0.70 1.50 -1.50 0.95 9.75 6.10 1.80 0.80 4.40 2 5.75 2.60 1.40 0.65 3.65 1.65 5 2.25 1.40 0.60 3.75 1.70 5.25 2.35 1.50 0.70 4 1.80 5.50 2.50 1.50 0.70 3.90 1.75 5.25 2.40 1.40 0.60 3.70 1.65 5.10 2.30 l2.65 1.20 0 65.90 0 65.85 -50.75 0 -50.75 0 0 -11.55 0 -11.50 -2.85 -1.25 c-3 -1.35 -28.70 -12.95 -40.90 -18.50 -3.85 -1.75 -7.15 -3 -7.30 -2.80 -0.25 0.30 -11.75 25.50 -18.85 41.45 l-1.85 4.10 -27.05 0.05 -27.10 0 -10.35 -22.85 c-5.70 -12.60 -10.50 -23.05 -10.70 -23.30 -0.20 -0.20 -4.30 1.40 -9.10 3.60 -4.80 2.15 -13.30 6 -18.95 8.55 -5.65 2.55 -12.70 5.75 -15.75 7.15 -8.45 3.95 -7.75 4.05 -26.50 -4.50 -33.85 -15.40 -33 -15 -33.65 -14.35 -0.35 0.35 -0.60 1 -0.60 1.45 0 0.40 -0.20 0.75 -0.50 0.75 -0.25 0 -0.50 0.55 -0.50 1.25 0 0.70 -0.20 1.25 -0.50 1.25 -0.25 0 -0.50 0.45 -0.50 1 0 0.55 -0.20 1 -0.45 1 -0.25 0 -0.75 1 -1.10 2.25 -0.35 1.25 -0.85 2.25 -1.05 2.25 -0.20 0 -0.40 0.45 -0.40 0.95 0 0.55 -0.20 1.15 -0.50 1.30 -0.30 0.15 -0.50 0.75 -0.50 1.30 0 0.50 -0.20 0.95 -0.50 0.95 -0.25 0 -0.50 0.45 -0.50 1 0 0.55 -0.20 1 -0.50 1 -0.25 0 -0.50 0.55 -0.50 1.25 0 0.70 -0.20 1.25 -0.50 1.25 -0.25 0 -0.50 0.45 -0.50 1 0 0.55 -0.20 1 -0.50 1 -0.25 0 -0.50 0.45 -0.50 1.05 0 1.05 -0.85 3 -1.55 3.45 -0.50 0.35 -2.45 4.90 -2.45 5.80 0 0.40 -0.20 0.70 -0.45 0.70 -0.25 0 -0.75 1 -1.10 2.25 -0.35 1.25 -0.85 2.25 -1.05 2.25 -0.20 0 -0.40 0.45 -0.40 1 0 0.55 -0.20 1 -0.50 1 -0.25 0 -0.50 0.55 -0.50 1.25 0 0.70 -0.20 1.25 -0.50 1.25 -0.25 0 -0.50 0.45 -0.50 1 0 0.55 -0.20 1 -0.50 1 -0.25 0 -0.50 0.35 -0.50 0.75 0 0.65 -3.35 0.75 -27.35 0.75 l-27.40 0 -4.20 -9.40 c-2.35 -5.15 -5.30 -11.65 -6.65 -14.50 -1.30 -2.85 -2.40 -5.25 -2.40 -5.35 0 -0.10 -0.95 -2.15 -2.05 -4.60 -1.15 -2.40 -2.85 -6.20 -3.80 -8.40 -0.95 -2.20 -1.80 -4.05 -1.90 -4.20 -0.10 -0.10 -11.35 4.85 -25 11 l-24.75 11.20 0 12.10 0 12.15 -2 0 -2 0 -0.10 -11.55 -0.15 -11.50 -4.50 -2.05 c-2.45 -1.10 -13.70 -6.15 -24.90 -11.25 -19.30 -8.75 -20.45 -9.20 -21.10 -8.30 -0.40 0.50 -0.75 1.05 -0.75 1.25 0 0.15 -0.90 2.30 -2 4.75 -3.35 7.20 -6.15 13.40 -7.35 16.15 -0.40 0.95 -1.30 2.90 -1.90 4.25 -0.65 1.40 -1.65 3.65 -2.25 5 -1.20 2.65 -2.70 6.05 -4.75 10.50 l-1.30 2.75 -13.20 0 -13.25 0 0 -66z m510 33.65 c1.50 -0.70 4.65 -2.10 7 -3.15 5.25 -2.35 32.20 -14.55 32.35 -14.65 0 -0.05 -1 -2.45 -2.35 -5.35 -1.30 -2.90 -5.60 -12.35 -9.50 -21 -3.95 -8.65 -7.65 -16.90 -8.30 -18.35 -0.65 -1.40 -1.20 -2.95 -1.20 -3.35 0 -0.70 -3.25 -0.80 -29.85 -0.90 l-29.90 -0.15 -8.90 -12.75 c-4.85 -7 -11.95 -17.15 -15.65 -22.55 l-6.80 -9.80 -5.60 2.45 c-28 12.50 -30.20 13.40 -32.35 13.40 -1.30 0 -6.70 -2.20 -18.35 -7.50 -9.10 -4.10 -16.80 -7.50 -17.05 -7.50 -0.25 0 -7.35 9.75 -15.85 21.65 -8.45 11.85 -15.55 21.85 -15.75 22.10 -0.20 0.30 -0.10 1.20 0.25 2 0.40 0.85 1.05 2.40 1.55 3.50 0.45 1.10 1.40 3.15 2 4.50 0.65 1.40 1.65 3.65 2.30 5 0.60 1.40 1.60 3.65 2.20 5 0.65 1.40 1.65 3.65 2.25 5 0.60 1.40 1.85 4.10 2.80 6.10 0.95 2 1.70 3.70 1.70 3.85 0 0.20 2.60 5.85 5.15 11.35 l1.10 2.30 1.75 -0.70 c0.95 -0.40 3.20 -1.40 5 -2.25 1.80 -0.85 4.45 -2.05 5.90 -2.70 1.40 -0.65 3.80 -1.75 5.25 -2.40 1.40 -0.65 3.75 -1.70 5.10 -2.30 2.80 -1.20 5.85 -2.60 10.85 -4.95 1.85 -0.85 3.45 -1.55 3.60 -1.55 0.15 0 1.70 -0.65 3.40 -1.50 5.55 -2.70 1.85 -4 49.30 17.55 1.75 0.80 3.80 1.45 4.55 1.45 0.80 0 2.05 0.30 2.85 0.70 1.40 0.70 4.20 2 28.20 12.80 5.65 2.55 11.95 5.40 14 6.35 7.10 3.30 6.30 3.20 10.50 1.25 2.05 -0.90 5 -2.25 6.50 -2.95z m-353.40 -20.60 c1.70 -0.80 4.40 -2 5.90 -2.70 1.50 -0.70 6.15 -2.75 10.25 -4.60 6.80 -3.05 12.75 -5.75 21.65 -9.80 l3.15 -1.45 -0.10 -29.45 c-0.05 -16.20 0.05 -29.65 0.25 -29.95 0.15 -0.25 2.60 -1.50 5.40 -2.75 2.85 -1.20 13.50 -5.90 23.65 -10.35 10.20 -4.50 19.85 -8.75 21.50 -9.50 5.75 -2.65 10.05 -4.65 18 -8.25 4.40 -2 13.50 -6.15 20.20 -9.20 6.65 -3.05 12.75 -5.55 13.50 -5.55 0.75 0 2.75 0.70 4.45 1.50 1.70 0.85 3.20 1.50 3.30 1.50 0.20 0 4.45 1.90 11.05 4.95 1.10 0.55 3.15 1.45 4.50 2.05 1.40 0.60 3.65 1.65 5 2.25 1.40 0.65 4.20 1.85 6.25 2.75 2.05 0.90 5.85 2.60 8.40 3.80 2.60 1.20 4.80 2.20 4.90 2.20 0.10 0 1.35 0.55 2.80 1.20 8.85 4.05 10.55 4.80 10.90 4.80 0.35 0 3.95 -5.10 18.75 -26.50 1.60 -2.35 5.95 -8.55 9.60 -13.85 3.65 -5.25 6.65 -9.70 6.65 -9.90 0 -0.30 -5.25 -7.80 -29.70 -42.60 -2.95 -4.20 -5.50 -7.65 -5.65 -7.65 -0.15 0 -2.45 1 -5.10 2.20 -2.65 1.20 -11.90 5.40 -20.55 9.30 -8.65 3.90 -19.65 8.90 -24.45 11.05 -7.10 3.25 -9.10 3.95 -11.15 3.95 -2.20 0 -5.40 -1.30 -24.85 -10.05 -12.25 -5.55 -23.10 -10.45 -24.05 -10.95 -2.60 -1.30 -4 -1.65 -4 -1 0 0.30 -0.75 2.15 -1.70 4.15 -0.90 2 -3.20 7.10 -5.05 11.35 -1.85 4.25 -3.55 7.85 -3.80 7.90 -0.25 0.10 -0.45 0.60 -0.45 1.10 0 0.50 -0.80 2.70 -1.80 4.85 -1 2.15 -2.25 4.90 -2.80 6.15 -2.25 5.30 -2.60 6 -3 6 -0.20 0 -0.40 0.45 -0.40 1 0 0.85 -1.10 3.55 -1.65 4.10 -0.05 0.10 -11.40 0.25 -25.25 0.40 l-25.15 0.25 -4.25 9.50 c-2.30 5.25 -4.65 10.40 -5.15 11.50 -0.50 1.10 -3.45 7.65 -6.55 14.50 -3.10 6.90 -5.90 12.85 -6.30 13.30 -0.40 0.40 -0.70 1.05 -0.70 1.35 0 0.50 -11.45 26.85 -17.25 39.60 -1.55 3.45 -3.05 6.85 -3.35 7.60 -0.40 1.20 0.50 3.60 8.10 20.75 4.75 10.65 9.50 21.50 10.65 24.05 1.10 2.50 2.10 4.60 2.15 4.60 0.05 0 1.55 -0.65 3.30 -1.45z m186.45 -70.80 c8.45 -11.80 15.25 -21.65 15.05 -21.80 -0.20 -0.15 -3.50 -1.70 -7.35 -3.45 -14.80 -6.60 -32.15 -14.45 -33.20 -15 -0.45 -0.20 -2.15 -1 -3.80 -1.65 -1.65 -0.70 -5.50 -2.40 -8.60 -3.80 l-5.55 -2.45 -7.70 3.50 c-4.20 1.90 -9.10 4.15 -10.90 5 -1.80 0.85 -8.10 3.70 -14 6.40 -14.05 6.40 -17.50 8 -17.50 8.20 0 0.15 2.20 5.15 4.10 9.30 1.15 2.50 2.75 6.05 4.35 9.60 0.60 1.35 1.25 2.90 1.50 3.50 0.55 1.45 10.50 23.45 10.85 24 0.15 0.25 13.10 0.35 28.85 0.30 l28.55 -0.15 15.35 -21.50z m113.70 -34 c7.95 -3.60 21.40 -9.80 25.05 -11.50 2.50 -1.20 6 -2.75 7.75 -3.55 1.75 -0.80 4.10 -1.85 5.20 -2.45 l2 -1 0.15 -5.25 c0.05 -2.90 0.45 -13.25 0.80 -23 0.40 -9.75 0.55 -17.90 0.40 -18.10 -0.30 -0.30 -32.30 -14.90 -34.85 -15.90 -0.55 -0.20 -3 -1.35 -5.50 -2.50 -2.45 -1.15 -6.20 -2.85 -8.25 -3.75 -2.05 -0.90 -5.70 -2.55 -8.05 -3.65 l-4.35 -2 -4.90 7 c-2.75 3.85 -6 8.50 -7.30 10.35 -2.30 3.20 -5.05 7.15 -9.15 13.05 -1.10 1.55 -3.25 4.60 -4.75 6.75 -1.50 2.10 -3.10 4.35 -3.50 4.95 -0.40 0.60 -1.85 2.60 -3.15 4.45 l-2.40 3.40 8.90 12.60 c4.90 6.95 13.10 18.45 18.15 25.65 l9.25 13 8.50 -3.90 c4.65 -2.20 9.20 -4.25 10 -4.65z m-232.20 -48.10 c0.80 -1.90 1.70 -3.80 1.95 -4.25 0.30 -0.50 0.50 -1.10 0.50 -1.35 0 -0.25 1.30 -3.20 2.90 -6.60 1.65 -3.40 3.35 -7.30 3.85 -8.70 0.50 -1.35 1.10 -2.70 1.30 -3 0.15 -0.25 1.05 -2.20 1.95 -4.25 1.50 -3.45 3 -6.85 4.75 -10.75 1.45 -3.25 1.40 -3.35 -2.50 -5 -1.10 -0.50 -3.35 -1.50 -5 -2.25 -1.65 -0.75 -4.10 -1.90 -5.50 -2.50 -1.35 -0.60 -3.70 -1.65 -5.10 -2.30 -3.60 -1.65 -10.90 -4.95 -16.90 -7.65 -1.90 -0.90 -4.35 -2.05 -5.35 -2.55 -1.85 -0.95 -1.95 -0.95 -3.75 0 -1.05 0.50 -3.45 1.65 -5.40 2.55 -4.25 1.90 -7.80 3.50 -11.60 5.25 -1.60 0.75 -4.10 1.85 -5.50 2.50 -3.10 1.40 -7.10 3.20 -10.75 4.90 -1.45 0.65 -3.50 1.55 -4.50 2 -4.50 1.90 -5.40 2.35 -5.40 2.70 0 0.20 0.75 1.95 1.70 3.85 0.90 1.95 2.20 4.65 2.80 6 0.60 1.40 2.55 5.50 4.30 9.15 1.75 3.70 3.20 6.75 3.20 6.85 0 0.10 1.15 2.60 2.55 5.60 3.75 7.90 4.90 10.45 5.45 11.85 l0.50 1.30 24 0 24.05 0 1.50 -3.35z m77.10 -22.60 c1.20 -0.55 8.05 -3.60 15.15 -6.80 7.15 -3.25 19.15 -8.70 26.70 -12.10 7.55 -3.45 13.95 -6.40 14.15 -6.65 0.25 -0.20 -2.30 -4.30 -5.70 -9.05 -3.35 -4.80 -10.05 -14.30 -14.85 -21.20 -4.80 -6.85 -9.05 -12.80 -9.50 -13.10 -0.60 -0.50 -7.20 -0.65 -28.95 -0.65 l-28.20 0 -0.70 1.70 c-0.40 0.95 -1.75 3.90 -3 6.55 -1.25 2.65 -2.25 4.90 -2.25 5 0 0.10 -1.35 2.95 -3 6.40 -1.65 3.45 -3 6.40 -3 6.50 0 0.15 -1.35 3.10 -3 6.55 -1.65 3.50 -3 6.45 -3 6.55 0 0.15 -0.90 2.05 -1.95 4.30 l-1.95 4.05 3.30 1.50 c1.85 0.80 5.40 2.40 7.85 3.50 4.75 2.10 5.65 2.50 13.40 6.10 2.70 1.25 5 2.30 5.10 2.30 0.15 0 2.35 0.95 4.85 2.15 2.55 1.20 5.35 2.45 6.15 2.75 0.85 0.35 3.30 1.50 5.50 2.60 2.20 1.05 4.15 1.95 4.35 1.95 0.15 0.05 1.30 -0.40 2.55 -0.90z m68.30 -30.60 c3.75 -1.70 9.60 -4.35 13.05 -5.90 3.45 -1.60 8.20 -3.75 10.65 -4.80 l4.35 -1.95 -0.10 -28.25 -0.15 -28.20 -10.25 -4.45 c-23.90 -10.35 -34.50 -14.90 -34.70 -14.90 -0.30 0 -0.70 0.90 -5.35 11.40 -0.60 1.30 -1.70 3.70 -2.45 5.35 -1.35 2.95 -2.85 6.20 -4.35 9.75 -0.45 0.95 -1.30 2.90 -1.90 4.25 -0.65 1.40 -1.65 3.65 -2.25 5 -0.60 1.40 -1.90 4.15 -2.85 6.20 -0.95 2 -1.75 4.05 -1.80 4.50 0 0.45 1.30 2.75 2.90 5.05 1.65 2.35 3.75 5.40 4.75 6.80 0.95 1.40 6.25 8.95 11.80 16.75 5.55 7.80 10.35 14.70 10.75 15.35 0.40 0.60 0.80 1.10 0.90 1.10 0.15 0 3.30 -1.40 7 -3.05z m-151.10 -34.30 c10.40 -10.95 21.55 -22.65 24.80 -26.05 l5.90 -6.15 -1.70 -2.35 c-5.15 -7.15 -8.85 -12.60 -8.85 -13.05 0 -0.25 -0.20 -0.55 -0.45 -0.65 -0.45 -0.15 -10.05 -13.60 -10.05 -14.05 0 -0.15 -0.50 -0.85 -1.15 -1.55 -0.60 -0.65 -1.45 -1.85 -1.85 -2.60 -0.40 -0.75 -1.20 -1.90 -1.75 -2.50 -0.60 -0.60 -1.35 -1.75 -1.75 -2.55 -0.40 -0.75 -1.05 -1.60 -1.35 -1.80 -0.35 -0.20 -0.65 -0.70 -0.65 -1.10 0 -0.35 -0.15 -0.75 -0.40 -0.85 -0.55 -0.25 -10.10 -13.55 -10.10 -14.10 0 -0.15 -0.50 -0.80 -1.15 -1.50 -0.60 -0.65 -1.45 -1.85 -1.85 -2.60 -0.40 -0.75 -1.20 -1.90 -1.75 -2.50 -0.60 -0.60 -1.35 -1.75 -1.75 -2.55 -0.40 -0.75 -1 -1.60 -1.30 -1.90 -0.55 -0.50 -9.15 -12.35 -13.30 -18.25 -3.70 -5.35 -26.90 -38.05 -28.90 -40.75 -1 -1.35 -5.55 -7.80 -10.10 -14.25 -4.55 -6.45 -11.30 -16.10 -15.05 -21.45 -3.75 -5.30 -6.85 -9.85 -6.95 -10.15 -0.10 -0.25 -11.15 -0.50 -27.85 -0.60 l-27.65 -0.10 -0.55 1.15 c-0.25 0.65 -0.70 1.15 -0.95 1.15 -0.20 0 -0.40 0.45 -0.40 1 0 0.55 -0.20 1 -0.50 1 -0.25 0 -0.50 0.45 -0.50 1.05 0 0.55 -0.35 1.35 -0.75 1.75 -0.40 0.45 -0.90 1.35 -1.05 2.10 -0.45 2.20 -1.30 4.10 -1.75 4.10 -0.25 0 -0.45 0.45 -0.45 1 0 0.55 -0.20 1 -0.50 1 -0.25 0 -0.50 0.55 -0.50 1.25 0 0.70 -0.20 1.25 -0.40 1.25 -0.20 0 -0.65 1 -1 2.25 -0.35 1.25 -0.80 2.25 -1.10 2.25 -0.25 0 -0.50 0.45 -0.50 1 0 0.55 -0.20 1 -0.45 1 -0.25 0 -0.75 1 -1.10 2.25 -0.35 1.25 -0.80 2.25 -1 2.25 -0.20 0 -0.65 1 -1 2.25 -0.35 1.25 -0.85 2.25 -1.05 2.25 -0.20 0 -0.40 0.45 -0.40 1 0 0.55 -0.20 1 -0.50 1 -0.25 0 -0.50 0.55 -0.50 1.25 0 0.70 -0.20 1.25 -0.50 1.25 -0.25 0 -0.50 0.45 -0.50 1 0 0.55 -0.20 1 -0.45 1 -0.25 0 -0.75 1 -1.10 2.25 -0.35 1.25 -0.80 2.25 -1 2.25 -0.20 0 -0.65 1 -1 2.25 -0.35 1.25 -0.90 2.25 -1.20 2.25 -0.80 0.05 1.80 1.35 11.75 5.85 5.10 2.35 9.95 4.55 10.75 4.90 0.85 0.40 7.45 3.40 14.75 6.70 l13.25 6 0.60 20.40 c0.30 11.20 0.60 22.55 0.60 25.15 l0.05 4.75 20.80 21.75 c11.45 11.95 23.30 24.45 26.35 27.75 3.05 3.30 14.60 15.45 25.60 27 11 11.55 21.25 22.30 22.70 23.90 1.50 1.55 2.90 2.85 3.10 2.85 0.20 0 8.90 -8.95 19.30 -19.85z m54.65 -57.65 c5.90 -6.15 13.75 -14.30 17.40 -18.10 l6.60 -6.85 0 -24.20 0 -24.25 -3.20 -1.55 c-1.80 -0.85 -3.35 -1.55 -3.55 -1.55 -0.15 0 -2.15 -0.90 -4.50 -2 -2.35 -1.10 -4.35 -2 -4.45 -2 -0.10 0 -2.60 -1.10 -5.55 -2.50 -2.95 -1.35 -5.40 -2.50 -5.50 -2.50 -0.10 0 -2.10 -0.90 -4.45 -2 -2.35 -1.10 -4.35 -2 -4.50 -2 -0.10 0 -2.20 -0.90 -4.65 -2.05 -5.50 -2.55 -6.05 -2.75 -13.50 -6.10 l-6.10 -2.75 -2.10 3.05 c-1.15 1.70 -4.45 6.50 -7.30 10.60 -16.30 23.45 -22.40 32.25 -23.95 34.60 l-1.75 2.60 1.35 2.10 c0.70 1.15 1.70 2.55 2.20 3.05 0.45 0.50 1.30 1.75 1.80 2.75 0.55 1 1.55 2.50 2.35 3.35 0.75 0.85 1.35 1.65 1.35 1.85 0 0.15 0.45 0.85 1.05 1.50 0.55 0.65 2.25 3 3.75 5.20 1.50 2.20 3.50 5.10 4.45 6.50 0.95 1.35 1.75 2.75 1.75 3.10 0 0.35 0.25 0.65 0.50 0.65 0.30 0 0.65 0.35 0.85 0.80 0.15 0.45 0.95 1.50 1.75 2.35 0.80 0.90 1.55 2.10 1.70 2.75 0.20 0.60 0.50 1.10 0.70 1.10 0.25 0 0.90 0.80 1.50 1.75 0.60 1 1.40 2.10 1.75 2.45 0.40 0.35 1.10 1.30 1.60 2.10 1.75 2.85 7.70 11.20 8.20 11.45 0.25 0.20 0.45 0.60 0.45 1 0 0.40 0.60 1.35 1.30 2.10 0.75 0.75 2.15 2.65 3.15 4.15 2.55 3.70 4.10 5.95 5.50 7.85 l1.20 1.60 5.05 -5.35 c2.80 -2.95 9.90 -10.40 15.80 -16.60z m79.85 -8.05 c1.45 -3.15 3.20 -6.95 3.85 -8.45 0.70 -1.50 4.40 -9.70 8.25 -18.20 3.85 -8.50 7.30 -15.65 7.65 -15.90 0.35 -0.20 11.80 -0.40 25.45 -0.40 l24.80 0 1.55 -3.35 c1.85 -4.20 14.55 -32.05 16.90 -37.10 2.85 -6.15 3.55 -5.20 -7.15 -10 -5.15 -2.35 -11.50 -5.20 -14.05 -6.40 -2.60 -1.20 -4.75 -2.15 -4.85 -2.15 -0.10 0 -2.25 -1 -4.85 -2.15 -2.55 -1.20 -6.10 -2.85 -7.90 -3.60 -1.80 -0.80 -3.75 -1.75 -4.35 -2.15 l-1.15 -0.70 -0.10 -29.55 -0.15 -29.50 -5.75 -2.60 c-4.90 -2.25 -11.05 -5 -34.90 -15.80 l-3.15 -1.40 -1.70 3.60 c-2.20 4.75 -3.95 8.65 -6.25 13.85 -1.05 2.35 -2.45 5.50 -3.15 7 -2.05 4.55 -3.35 7.35 -7.10 15.85 l-3.65 8.15 2.90 6.35 c1.60 3.55 4.95 11 7.50 16.65 2.55 5.65 6.15 13.70 8.05 17.90 3.25 7.15 4 10.05 3.05 11.35 -0.20 0.30 -5.75 3 -12.35 5.95 -6.60 3 -13.70 6.20 -15.75 7.15 -2.05 0.90 -8.15 3.65 -13.50 6.10 l-9.75 4.40 0 24.15 c0 20.95 0.10 24.20 0.75 24.60 0.40 0.20 3.45 1.65 6.75 3.20 3.30 1.55 7.60 3.55 9.55 4.50 1.95 0.90 5.10 2.35 7 3.25 1.90 0.85 5.70 2.65 8.45 3.95 2.75 1.30 7.05 3.30 9.50 4.45 2.50 1.10 4.85 2.25 5.25 2.50 0.40 0.30 1 0.45 1.25 0.35 0.30 -0.05 1.65 -2.70 3.10 -5.85z m160.15 -74.95 c5.65 -2.55 12.15 -5.50 14.40 -6.55 2.30 -1.10 4.25 -1.95 4.35 -1.95 0.10 0 2.25 -1 4.85 -2.20 2.55 -1.20 6.35 -2.90 8.40 -3.80 2.05 -0.90 3.80 -1.70 3.90 -1.75 0.15 -0.15 -5.60 -13 -12.70 -28.40 -1.75 -3.80 -3.20 -7 -3.20 -7.10 0 -0.10 -1.15 -2.60 -2.55 -5.60 -3.90 -8.15 -3.90 -9 0.45 -18.65 8.45 -18.75 12.70 -28.15 15.30 -33.95 1.55 -3.40 2.70 -6.30 2.60 -6.40 -0.15 -0.15 -8.50 -3.95 -27.30 -12.40 -2.60 -1.15 -8.55 -3.85 -13.20 -5.95 -4.70 -2.10 -8.85 -3.80 -9.30 -3.80 -0.45 0 -1.90 0.55 -3.30 1.20 -1.35 0.65 -3.55 1.70 -4.95 2.30 -1.35 0.60 -3.75 1.70 -5.25 2.35 -1.50 0.70 -4.65 2.10 -7 3.15 -2.35 1.05 -5.80 2.60 -7.75 3.50 -1.90 0.90 -4.75 2.20 -6.25 2.85 -1.50 0.70 -4.10 1.85 -5.75 2.65 -1.65 0.75 -4.45 2 -6.25 2.75 -1.80 0.80 -3.30 1.50 -3.40 1.55 -0.10 0.05 0.05 0.50 0.35 1.05 0.25 0.50 1.05 2.15 1.70 3.65 0.70 1.50 1.95 4.20 2.75 6 0.80 1.80 1.85 4.15 2.35 5.25 0.50 1.10 1.75 3.85 2.80 6.15 1.10 2.25 1.95 4.20 1.95 4.30 0 0.15 1.15 2.60 2.50 5.55 1.40 2.95 2.50 5.40 2.50 5.55 0 0.30 3 6.90 4 8.75 1.40 2.60 1.25 4.85 -0.70 9.05 -2.20 4.80 -4 8.70 -6.30 13.90 -1.05 2.35 -2.45 5.50 -3.15 7 -2.05 4.55 -3.35 7.35 -7.10 15.80 l-3.60 8.10 13.30 6 c7.30 3.35 18.45 8.40 24.80 11.25 l11.50 5.20 2 -0.85 c1.10 -0.50 6.60 -2.95 12.25 -5.50z m-65.40 -24.25 c1.35 -3.05 4.25 -9.45 6.40 -14.25 2.15 -4.80 4.45 -10 5.15 -11.50 7.05 -15.55 7.30 -16.10 6.85 -17.20 -0.20 -0.60 -1.25 -2.85 -2.25 -5.05 -1.05 -2.20 -3.15 -6.90 -4.75 -10.50 -1.60 -3.55 -3.70 -8.30 -4.75 -10.50 -1 -2.20 -2.15 -4.65 -2.50 -5.50 -0.40 -0.80 -1.60 -3.50 -2.70 -5.90 -1.15 -2.45 -2.05 -4.55 -2.05 -4.65 0 -0.10 -0.55 -1.40 -1.25 -2.95 -1.05 -2.30 -1.45 -2.70 -2.15 -2.30 -0.45 0.25 -5.70 2.60 -11.60 5.30 -5.90 2.65 -12.10 5.45 -13.75 6.20 -1.65 0.75 -6.20 2.80 -10.10 4.60 l-7.10 3.20 -0.05 28.55 0 28.50 2.65 1.20 c1.40 0.65 4.50 2.05 6.85 3.15 2.35 1.05 6.30 2.85 8.75 3.90 2.50 1.10 4.95 2.20 5.50 2.45 5.75 2.80 19.60 8.90 19.95 8.80 0.25 -0.05 1.55 -2.55 2.90 -5.55z m-282.50 0.30 c1.70 -0.75 4.15 -1.85 5.40 -2.40 1.25 -0.60 3.40 -1.55 4.75 -2.15 1.40 -0.60 3.70 -1.65 5.15 -2.30 1.40 -0.65 3.90 -1.80 5.50 -2.50 1.55 -0.70 4.45 -2.05 6.40 -2.95 l3.60 -1.65 0.30 -5.70 c0.15 -3.10 0.40 -15.95 0.60 -28.50 l0.30 -22.85 -2.95 -1.35 c-1.60 -0.70 -3.80 -1.70 -4.90 -2.20 -1.10 -0.50 -3.30 -1.45 -4.85 -2.20 -1.60 -0.70 -4.10 -1.85 -5.50 -2.50 -1.45 -0.65 -4.15 -1.90 -6.05 -2.75 -1.85 -0.85 -3.45 -1.55 -3.55 -1.55 -0.10 0 -2.10 -0.85 -4.40 -1.95 -2.25 -1.05 -5.90 -2.70 -8 -3.70 l-3.90 -1.80 -1.55 3.35 c-0.85 1.85 -2.10 4.50 -2.70 5.85 -0.60 1.40 -1.95 4.30 -3 6.50 -2.25 4.85 -9.30 20.15 -12.45 27.05 -1.25 2.80 -2.30 5.25 -2.30 5.50 0 0.25 0.45 1 1 1.70 0.55 0.70 6.50 9.15 13.25 18.75 6.75 9.65 12.55 17.85 12.90 18.25 0.35 0.40 1.30 1.80 2.10 3.10 0.85 1.35 1.55 2.40 1.60 2.40 0 0 1.50 -0.65 3.25 -1.45z m73.90 -3.95 c2.05 -2.95 9.05 -12.80 15.55 -21.95 l11.85 -16.60 -8.90 -19.90 c-9.40 -21 -12.45 -27.75 -12.70 -28 -0.25 -0.30 -42.60 19 -43.40 19.75 -0.20 0.20 -0.60 12.85 -0.85 28.10 -0.40 21.80 -0.40 27.85 0.10 28.25 0.65 0.60 1.40 0.95 20.85 9.75 7.30 3.30 13.35 6 13.50 5.95 0.15 0 1.95 -2.40 4 -5.35z m89.85 -44.70 c3.80 -8.60 11.70 -26.10 13.45 -29.80 0.95 -2.05 1.70 -3.80 1.70 -3.90 0 -0.10 0.80 -1.95 1.80 -4.05 3 -6.50 3.10 -5.80 -0.85 -7.60 -1.90 -0.85 -4.30 -1.95 -5.30 -2.35 -1.05 -0.45 -3.75 -1.70 -6.05 -2.75 -2.30 -1.05 -4.25 -1.95 -4.40 -1.95 -0.10 0 -2.60 -1.15 -5.50 -2.50 -2.90 -1.40 -5.35 -2.50 -5.45 -2.50 -0.20 0 -9.95 -4.40 -15.65 -7.05 -1.70 -0.80 -3.25 -1.45 -3.40 -1.45 -0.20 0 -4.85 2.05 -10.40 4.55 -5.50 2.50 -13.55 6.15 -17.80 8.10 -16.20 7.30 -20.75 9.40 -21.10 9.75 -0.20 0.20 0.50 2.25 1.55 4.60 1.05 2.35 5.80 12.90 10.55 23.50 4.75 10.60 8.70 19.40 8.85 19.65 0.10 0.20 12.75 0.35 28.10 0.35 l27.90 0 2 -4.60z"/>
 </g>
 <g fill="#e3fcd3">
  <path d="M25 599.20 c0 -0.40 0.55 -2 1.25 -3.50 2.05 -4.40 3.55 -7.80 4.75 -10.45 0.60 -1.35 1.60 -3.60 2.25 -5 0.60 -1.35 1.65 -3.60 2.25 -5 0.60 -1.35 1.65 -3.60 2.25 -5 0.65 -1.35 1.65 -3.60 2.25 -5 1.25 -2.85 2.80 -6.20 4.70 -10.35 0.75 -1.60 1.55 -2.90 1.80 -2.90 0.25 0 10.05 4.35 21.85 9.70 11.75 5.35 23.45 10.60 25.90 11.70 l4.50 2.05 0.15 12.25 0.10 12.30 -37 0 c-33.25 0 -37 -0.10 -37 -0.80z"/>
  <path d="M99.90 587.40 c-0.10 -6.95 0 -12.85 0.25 -13.10 0.20 -0.30 0.35 5.40 0.35 12.60 0 7.20 -0.10 13.10 -0.25 13.10 -0.10 0 -0.25 -5.70 -0.35 -12.60z"/>
  <path d="M225.25 598.65 c0.15 -0.80 0.55 -1.50 0.80 -1.55 0.25 -0.10 0.35 -0.35 0.20 -0.60 -0.15 -0.25 0 -0.70 0.35 -1.10 0.35 -0.35 0.75 -1.10 0.80 -1.65 0.10 -0.55 0.40 -1.05 0.65 -1.15 0.25 -0.10 0.45 -0.60 0.45 -1.15 0 -0.50 0.25 -0.95 0.50 -0.95 0.30 0 0.45 -0.15 0.40 -0.35 -0.15 -0.65 1.25 -4.15 1.70 -4.15 0.20 0 0.35 -0.15 0.30 -0.35 -0.20 -0.70 2.20 -6.15 2.70 -6.15 0.25 0 0.30 -0.20 0.15 -0.50 -0.15 -0.25 -0.05 -0.50 0.25 -0.50 0.30 0 0.40 -0.20 0.25 -0.50 -0.15 -0.25 -0.10 -0.50 0.10 -0.50 0.25 0 0.50 -0.50 0.50 -1.10 0.05 -0.65 0.35 -1.20 0.65 -1.30 0.25 -0.10 0.40 -0.35 0.25 -0.60 -0.15 -0.25 0 -0.70 0.35 -1.10 0.35 -0.35 0.75 -1.10 0.80 -1.65 0.10 -0.55 0.40 -1.10 0.65 -1.15 0.25 -0.10 0.35 -0.35 0.20 -0.60 -0.15 -0.25 0.10 -0.80 0.55 -1.20 0.40 -0.45 0.60 -0.80 0.45 -0.80 -0.20 0 0 -0.55 0.45 -1.25 0.45 -0.65 0.80 -1.55 0.80 -2 0 -0.40 0.25 -0.75 0.50 -0.75 0.30 0 0.45 -0.15 0.40 -0.35 -0.20 -0.70 1.30 -4.15 1.75 -4.15 0.20 0 0.30 -0.20 0.10 -0.45 -0.15 -0.25 0 -0.75 0.35 -1.15 0.35 -0.35 0.75 -1.10 0.80 -1.65 0.10 -0.55 0.40 -1.05 0.65 -1.15 0.25 -0.10 0.45 -0.60 0.45 -1.15 0 -0.50 0.25 -0.95 0.55 -0.95 0.25 0 0.40 -0.20 0.25 -0.40 -0.10 -0.20 -0.05 -0.70 0.20 -1.05 0.30 -0.55 2.65 0.35 10.55 3.95 31.55 14.35 41.35 18.65 42.45 18.65 0.70 0 6.10 -2.20 12 -4.90 5.90 -2.65 13.10 -5.95 16 -7.25 19.65 -8.85 23.65 -10.75 23.85 -11.35 0.15 -0.40 -0.20 -1.65 -0.75 -2.80 -1.50 -2.95 -5.10 -10.90 -5.10 -11.15 0 -0.15 -0.75 -1.85 -1.70 -3.85 -0.95 -2 -2.20 -4.70 -2.80 -6.10 -0.60 -1.35 -1.60 -3.60 -2.25 -5 -0.60 -1.35 -1.60 -3.60 -2.20 -5 -0.65 -1.35 -1.65 -3.60 -2.30 -5 -0.60 -1.35 -1.50 -3.40 -2 -4.50 -0.45 -1.10 -1.25 -2.85 -1.80 -3.90 -0.50 -1.10 -0.95 -2.25 -0.95 -2.65 0 -0.35 7.30 -10.95 16.25 -23.45 8.95 -12.55 16.25 -23.10 16.25 -23.45 0 -0.65 -1.75 -1.65 -6.75 -3.80 -1.10 -0.50 -3.50 -1.60 -5.40 -2.45 -1.85 -0.85 -3.45 -1.55 -3.55 -1.55 -0.10 0 -2.30 -1 -4.90 -2.20 -2.55 -1.20 -6.35 -2.90 -8.40 -3.80 -5.35 -2.30 -7.90 -3.45 -10.70 -4.80 -2.55 -1.25 -3.90 -1.55 -3 -0.75 0.40 0.40 4.35 2.20 23.45 10.80 1.40 0.60 5.90 2.65 10 4.50 4.15 1.85 7.75 3.60 8.10 3.95 0.40 0.40 -3.40 6.10 -15.50 23 -8.85 12.35 -16.40 22.55 -16.70 22.70 -0.35 0.10 -0.65 -0.05 -0.65 -0.35 0 -0.30 6.95 -10.30 15.50 -22.20 8.50 -11.95 15.50 -21.95 15.60 -22.30 0.10 -0.30 -1.75 -1.45 -4.10 -2.50 -2.35 -1.05 -5.55 -2.50 -7.15 -3.20 -1.60 -0.75 -2.95 -1.35 -3.05 -1.35 -0.10 0 -2.30 -1 -4.90 -2.20 -2.55 -1.20 -6.35 -2.90 -8.40 -3.80 -2.05 -0.90 -4.85 -2.10 -6.25 -2.75 -1.35 -0.60 -3.60 -1.65 -5 -2.25 -1.35 -0.60 -3.60 -1.65 -5 -2.25 -1.35 -0.65 -3.50 -1.60 -4.75 -2.15 -1.25 -0.55 -4 -1.80 -6.20 -2.80 -2.15 -1 -4.15 -1.80 -4.40 -1.80 -0.45 0 -7.70 3.25 -27.90 12.50 -6.75 3.05 -13.25 6.05 -14.50 6.60 -1.25 0.55 -3.80 1.80 -5.75 2.70 -3.65 1.75 -4.75 2.05 -4.75 1.20 0 -0.55 1.65 -1.35 18.50 -9 5.90 -2.70 12.55 -5.75 14.75 -6.75 2.20 -1.05 7.45 -3.45 11.70 -5.35 l7.65 -3.50 9.20 4.15 c5.10 2.25 9.35 3.95 9.50 3.80 0.15 -0.15 -0.45 -0.60 -1.40 -1 -0.90 -0.45 -3.65 -1.70 -6.05 -2.80 -2.45 -1.15 -4.55 -2.05 -4.65 -2.05 -0.10 0 -1.55 -0.65 -3.20 -1.45 l-3.05 -1.50 -12.10 5.55 c-6.65 3 -15.70 7.15 -20.10 9.15 -7.75 3.55 -11.80 5.35 -18 8.20 -1.65 0.80 -11.10 4.95 -21 9.30 -9.90 4.35 -20.45 9 -23.50 10.35 -3 1.30 -5.70 2.70 -6 3.10 -0.35 0.40 -0.40 10.80 -0.25 29.95 l0.25 29.30 -2.50 1.10 c-1.35 0.60 -4.40 2 -6.75 3.10 -2.35 1.05 -8.50 3.85 -13.75 6.20 -5.20 2.35 -10.50 4.70 -11.75 5.30 -11.55 5.30 -13 5.75 -13 4.30 0 -0.25 -0.90 -2.40 -1.95 -4.80 -11.45 -25.65 -19.55 -44.30 -19.55 -44.90 0 -0.45 1.10 -3.20 2.45 -6.15 6.30 -13.85 19.05 -43.10 19.05 -43.70 0 -0.30 0.30 -0.95 0.70 -1.35 0.40 -0.45 3.20 -6.40 6.30 -13.30 3.10 -6.85 6.05 -13.40 6.55 -14.50 0.50 -1.10 2.85 -6.25 5.15 -11.50 l4.25 -9.50 25.05 -0.25 c24.05 -0.25 25.10 -0.30 25.80 -1.20 0.35 -0.55 0.55 -1.10 0.40 -1.25 -0.15 -0.15 -0.50 0.10 -0.75 0.60 -0.45 0.80 -2.20 0.85 -26.10 0.75 l-25.60 -0.15 25 -0.25 c13.75 -0.15 25.05 -0.30 25.15 -0.40 0.10 -0.05 0.80 -1.60 1.60 -3.45 0.85 -1.90 1.70 -3.80 2 -4.25 0.25 -0.50 0.50 -1.35 0.50 -1.90 0 -0.55 0.25 -1 0.50 -1 0.30 0 0.50 -0.20 0.50 -0.45 0 -0.25 1 -2.60 2.25 -5.25 1.25 -2.65 2.25 -4.90 2.25 -5 0 -0.10 2.40 -5.55 5.30 -12.10 2.90 -6.60 5.50 -12.45 5.75 -13.10 0.30 -0.75 0.65 -1 1.05 -0.75 0.35 0.20 0.90 0.40 1.15 0.45 0.30 0.05 5.80 2.50 12.25 5.45 29.20 13.30 40.50 18.25 41.40 18.25 0.55 0 4.90 -1.75 9.65 -3.95 4.80 -2.15 15.80 -7.15 24.45 -11.05 24.90 -11.25 26.70 -12.10 27.30 -12.55 0.40 -0.35 5.15 6.05 15.20 20.40 8.05 11.50 16.35 23.25 18.35 26.10 2.05 2.80 3.85 5.45 4 5.85 0.20 0.55 -2.80 5.10 -17.80 26.70 -14.80 21.35 -18.05 26.15 -18.05 26.70 0 0.35 7.75 4.15 17.85 8.75 20.40 9.25 17.35 8.70 26.65 4.55 17.10 -7.65 29.40 -13 29.85 -13 0.35 0 3.75 4.55 7.60 10.15 3.90 5.55 11.05 15.85 15.90 22.85 l8.90 12.75 29.90 0.15 c26.60 0.10 29.85 0.20 29.85 0.90 0 0.40 0.55 1.95 1.20 3.35 0.65 1.45 4.35 9.70 8.30 18.35 3.90 8.65 8.45 18.65 10.05 22.20 1.65 3.55 2.90 6.50 2.80 6.60 -0.15 0.20 -21.10 9.70 -31.10 14.20 -3.55 1.60 -7.75 3.45 -9.25 4.15 -9.05 4.15 -10.75 4.85 -11.75 4.85 -1.15 0 -2.75 -0.60 -8.75 -3.35 -1.80 -0.85 -7.85 -3.60 -13.50 -6.15 -5.65 -2.55 -13.95 -6.30 -18.50 -8.35 -4.55 -2.05 -8.90 -4.05 -9.70 -4.45 -0.80 -0.40 -2.05 -0.70 -2.85 -0.70 -0.75 0 -2.80 -0.65 -4.55 -1.45 -28.40 -12.90 -42.15 -19.05 -42.65 -19.05 -0.30 0 -1.95 0.70 -3.65 1.50 -1.70 0.85 -3.25 1.50 -3.40 1.50 -0.15 0 -1.75 0.70 -3.60 1.55 -5 2.35 -8.05 3.75 -10.85 4.95 -1.35 0.60 -3.70 1.65 -5.10 2.30 -1.45 0.65 -3.85 1.75 -5.25 2.40 -1.45 0.65 -4.10 1.85 -5.90 2.70 -1.80 0.80 -4.45 2 -5.85 2.60 -1.45 0.60 -2.65 1.30 -2.65 1.50 0 0.25 4.75 10.85 10.50 23.55 5.80 12.75 10.50 23.55 10.50 24.05 0 0.85 -3.40 0.90 -74.55 0.90 l-74.55 0 0.35 -1.35z m4 -209.20 c-0.20 -0.25 -0.10 -0.45 0.10 -0.45 0.25 0 0.70 -0.65 1 -1.50 0.80 -2.10 0 -1.90 -1 0.25 -0.95 2 -1.10 2.95 -0.35 2.50 0.30 -0.20 0.40 -0.55 0.25 -0.80z m7.50 -16.45 c0.45 -0.90 0.55 -1.50 0.25 -1.50 -0.45 0 -1.50 2 -1.50 2.80 0 0.60 0.55 0.05 1.25 -1.30z m3.95 -9.45 c-0.30 -0.30 -1.20 0.95 -1.20 1.70 0.05 0.30 0.35 0.05 0.75 -0.45 0.40 -0.55 0.60 -1.10 0.45 -1.25z m3 -5.85 c0.20 -0.50 0.05 -0.70 -0.30 -0.60 -0.75 0.25 -1.15 1.40 -0.50 1.40 0.25 0 0.65 -0.35 0.80 -0.80z m1.55 -3.80 c0.40 -1.05 0.55 -1.90 0.30 -1.90 -0.40 0 -2.05 3.50 -2.05 4.35 0 0.75 1 -0.70 1.75 -2.45z"/>
  <path d="M495.25 574.75 c-0.80 -0.35 -3.20 -1.45 -5.25 -2.40 -2.05 -0.95 -8.35 -3.80 -14 -6.35 -32.90 -14.85 -30.20 -13.55 -29.45 -14 0.60 -0.40 1.60 0 24.70 10.50 7.45 3.35 16.75 7.60 20.75 9.35 4 1.80 7.35 3.35 7.45 3.45 0.50 0.50 -2.85 0.05 -4.20 -0.55z"/>
  <path d="M150.60 552.05 c-0.55 -0.35 -0.55 -0.45 0.05 -0.70 0.40 -0.15 1.15 0.05 1.70 0.40 0.85 0.70 0.85 0.70 -0.10 0.75 -0.55 0 -1.30 -0.20 -1.65 -0.45z"/>
  <path d="M436.75 452.50 c-0.20 -0.30 0.35 -0.50 1.35 -0.50 1.25 0 1.45 0.15 0.90 0.50 -0.95 0.65 -1.85 0.65 -2.25 0z"/>
  <path d="M42.05 443.85 c-1.40 -3.15 -2.55 -5.85 -2.55 -6 0 -0.30 -2.25 -5.25 -5.55 -12.10 -0.50 -1.10 -1.75 -3.90 -2.75 -6.25 -0.95 -2.35 -2 -4.45 -2.25 -4.70 -0.25 -0.30 -0.45 -0.75 -0.45 -1.10 0 -0.35 -1.10 -2.95 -2.50 -5.85 -3.60 -7.55 -3.60 -7.50 1.80 -19.25 0.95 -2.05 1.70 -3.75 1.70 -3.85 0 -0.10 1 -2.25 2.20 -4.85 3.55 -7.60 5.30 -11.75 5.30 -12.55 0 -0.45 0.20 -0.85 0.45 -0.95 0.70 -0.25 6.70 -13.95 6.25 -14.35 -0.25 -0.20 -2.45 -1.30 -4.95 -2.40 -10.55 -4.85 -12.10 -5.55 -14.20 -6.45 -1.20 -0.50 -7.15 -3.20 -13.25 -5.95 l-11.05 -5.05 -0.15 -31.10 c-0.10 -25.65 0 -31.10 0.55 -31.10 0.35 0 1.75 -0.55 3.15 -1.20 1.35 -0.65 4.35 -2 6.70 -3.05 2.35 -1.05 6.15 -2.75 8.40 -3.80 2.30 -1.10 4.25 -1.95 4.35 -1.95 0.10 0 2.55 -1.10 5.50 -2.50 2.95 -1.35 5.40 -2.50 5.55 -2.50 0.10 0 2.05 -0.90 4.30 -1.95 2.30 -1.05 4.90 -2.25 5.80 -2.60 0.85 -0.40 1.60 -0.85 1.60 -1.05 0 -1.60 1.45 1.10 5.75 10.70 2.75 6.05 7.95 17.50 11.50 25.35 l6.55 14.30 29.55 0.15 29.55 0.10 4.35 9.90 c2.40 5.40 4.65 10.55 5.05 11.35 6.45 14.30 13.15 30 12.85 30.30 -0.25 0.20 -4.20 2.05 -8.90 4.15 -4.65 2.05 -16.15 7.25 -25.50 11.50 l-17 7.70 -0.25 25.45 -0.25 25.40 -2.25 1.15 c-2.30 1.15 -14 6.45 -32 14.60 -5.65 2.50 -11.90 5.35 -13.90 6.30 -4.10 1.90 -4.40 1.95 -4.75 1.10 -0.20 -0.50 -0.30 -0.50 -0.30 0 -0.05 0.30 -0.35 0.60 -0.75 0.60 -0.40 0 -1.75 -2.40 -3.25 -5.65z m1.15 -2.40 c-2.40 -5.35 -3.10 -6.60 -2.45 -4.45 0.50 1.70 4.40 10 4.60 9.80 0.10 -0.05 -0.90 -2.50 -2.15 -5.35z m-8.35 -18.45 c-0.55 -1.35 -1.15 -2.40 -1.25 -2.30 -0.20 0.25 1.75 4.80 2.10 4.80 0.10 0 -0.25 -1.10 -0.85 -2.50z m-9.45 -21.05 c-0.30 -0.80 -0.60 -1.40 -0.70 -1.30 -0.25 0.25 0.65 2.85 1 2.85 0.15 0 0 -0.70 -0.30 -1.55z m4.30 -13.40 c-0.30 -0.30 -1.20 0.95 -1.20 1.70 0.05 0.30 0.35 0.05 0.75 -0.45 0.40 -0.55 0.60 -1.10 0.45 -1.25z m9.05 -20.10 c-0.15 -0.20 0.05 -0.50 0.35 -0.60 0.50 -0.20 0.50 -0.30 0 -0.30 -0.35 -0.05 -0.85 0.55 -1.10 1.25 -0.70 1.75 -0.60 2.10 0.25 1 0.40 -0.50 0.60 -1.10 0.50 -1.35z m4.95 -10.90 c-0.30 -0.30 -1.20 0.95 -1.20 1.70 0.05 0.30 0.35 0.05 0.75 -0.45 0.40 -0.55 0.60 -1.10 0.45 -1.25z m-5.20 -10.30 c-0.70 -0.40 -1.45 -0.70 -1.75 -0.70 -0.25 0 0.05 0.30 0.75 0.70 0.70 0.40 1.50 0.70 1.75 0.70 0.30 0 -0.05 -0.30 -0.75 -0.70z"/>
  <path d="M497.25 376.10 c-0.30 -0.25 -1.95 -1.05 -3.75 -1.85 -1.80 -0.75 -4.60 -2 -6.25 -2.75 -1.65 -0.80 -4.25 -1.95 -5.75 -2.65 -1.50 -0.65 -4.25 -1.95 -6.15 -2.80 -1.85 -0.85 -3.50 -1.55 -3.65 -1.55 -0.10 0 -2.60 -1.10 -5.50 -2.50 -2.90 -1.35 -5.35 -2.50 -5.45 -2.50 -0.10 0 -2.55 -1.10 -5.50 -2.50 -2.95 -1.35 -5.40 -2.50 -5.50 -2.50 -0.10 0 -2.05 -0.85 -4.35 -1.90 -2.25 -1.10 -5.35 -2.45 -6.75 -3.10 -2.50 -1.10 -3.40 -2 -2 -2 0.30 0 3.10 1.15 6.10 2.55 3.05 1.35 6.75 3.05 8.25 3.70 1.50 0.65 5 2.20 7.75 3.50 2.75 1.30 5.45 2.55 6 2.75 3.05 1.20 34.60 15.65 35 16.05 0.60 0.55 -1.85 0.60 -2.50 0.05z"/>
  <path d="M498.75 374.60 c-0.30 -0.25 -1.95 -1.05 -3.75 -1.85 -1.80 -0.75 -4.60 -2 -6.25 -2.75 -1.65 -0.80 -4.25 -1.95 -5.75 -2.65 -1.50 -0.65 -4.25 -1.95 -6.15 -2.80 -1.85 -0.85 -3.50 -1.55 -3.65 -1.55 -0.10 0 -2.60 -1.10 -5.50 -2.50 -2.90 -1.35 -5.35 -2.50 -5.45 -2.50 -0.10 0 -2.55 -1.10 -5.50 -2.50 -2.95 -1.35 -5.40 -2.50 -5.50 -2.50 -0.10 0 -2.05 -0.85 -4.35 -1.90 -2.25 -1.10 -5.35 -2.45 -6.75 -3.10 -1.45 -0.65 -2.65 -1.30 -2.65 -1.50 0 -0.15 2.35 -3.65 5.20 -7.80 2.90 -4.10 6.20 -8.85 7.40 -10.60 1.20 -1.70 3.15 -4.55 4.40 -6.30 11.70 -16.55 15 -21.50 15 -22.25 0 -0.75 -20.45 -46.10 -22 -48.90 -0.70 -1.20 -0.80 -1.70 -0.35 -2.05 0.55 -0.40 3.50 -1.80 8.60 -4.10 1.10 -0.50 3.25 -1.45 4.75 -2.15 1.50 -0.70 3.90 -1.75 5.25 -2.35 1.40 -0.60 3.70 -1.65 5.15 -2.30 6.35 -2.90 8.45 -3.85 10.10 -4.55 0.95 -0.45 2.90 -1.30 4.25 -1.90 1.40 -0.65 3.65 -1.65 5 -2.25 1.40 -0.60 3.70 -1.65 5.15 -2.30 1.45 -0.65 3.10 -1.20 3.70 -1.20 0.60 0 5.35 1.95 10.60 4.35 24.15 10.95 41.15 18.60 42.60 19.15 0.90 0.35 1.05 0.30 0.85 -0.55 -0.15 -0.50 -0.05 -0.95 0.20 -0.95 0.30 0 9.50 4.05 20.45 9 10.95 5 21.35 9.65 23.05 10.40 3.15 1.35 3.95 2.30 2.30 2.75 -0.85 0.20 -0.85 0.25 0 0.30 0.80 0.05 0.85 1.85 0.85 30.85 l0 30.75 -4.10 1.90 c-2.30 1.05 -8.05 3.65 -12.75 5.80 -4.75 2.15 -8.65 4.10 -8.65 4.30 0 0.25 -0.40 0.45 -0.90 0.45 -0.85 0 -6.95 2.60 -16.55 7.05 -2.05 0.95 -3.40 1.30 -3.70 1 -0.55 -0.55 0.50 -1.10 11.10 -5.85 4.20 -1.85 7.45 -3.50 7.20 -3.55 -0.35 -0.15 -5.55 2.05 -14.40 6.10 -0.80 0.40 -10.25 4.65 -21 9.50 -10.70 4.90 -22.10 10.05 -25.25 11.50 -12.80 5.90 -11.60 5.40 -12.25 4.85z m85.05 -37.10 c5.45 -2.50 11.25 -5.15 12.80 -5.85 1.60 -0.75 2.80 -1.40 2.65 -1.55 -0.20 -0.20 -7.35 2.90 -21.50 9.40 -3 1.35 -5.15 2.50 -4.70 2.50 0.45 0 5.25 -2.05 10.75 -4.50z m8.20 -71 c-0.95 -0.55 -1.95 -0.95 -2.25 -0.95 -0.25 0 0.30 0.40 1.25 0.95 0.95 0.55 2 0.95 2.25 0.95 0.30 0 -0.30 -0.40 -1.25 -0.95z m-14 -6.25 c0 -0.25 -3.45 -1.75 -3.95 -1.70 -0.25 0 3.40 1.90 3.85 1.95 0.05 0 0.10 -0.10 0.10 -0.25z m-12.50 -5.75 c-0.95 -0.55 -1.95 -0.95 -2.25 -0.95 -0.25 0 0.30 0.40 1.25 0.95 0.95 0.55 2 0.95 2.25 0.95 0.30 0 -0.30 -0.40 -1.25 -0.95z"/>
  <path d="M298.25 374 c-0.80 -0.20 -3.70 -1.40 -6.40 -2.70 -2.65 -1.25 -4.95 -2.30 -5.05 -2.30 -0.15 0 -2.40 -1 -5 -2.25 -2.65 -1.25 -4.90 -2.25 -5.05 -2.25 -0.10 0 -2.40 -1.05 -5.10 -2.30 -7.20 -3.35 -8.20 -3.80 -16.40 -7.45 -7.10 -3.15 -10.60 -5.25 -8.70 -5.25 0.45 0 6.20 2.45 12.75 5.45 27.40 12.45 40 18.05 40.55 18.05 0.35 0 5.40 -2.15 11.25 -4.80 9.85 -4.45 31.10 -14.10 43.25 -19.60 3.25 -1.45 4.95 -2.50 4.70 -2.80 -0.60 -0.85 -20.60 -29.15 -22.55 -32 -6.40 -9.25 -7.75 -11.15 -8.40 -11.95 -0.90 -1 -0.50 -1.65 0.60 -1 0.45 0.25 4.60 5.85 9.20 12.40 4.60 6.60 11.60 16.55 15.50 22.10 3.90 5.50 7.25 10.40 7.40 10.85 0.20 0.50 -0.20 0.95 -1.40 1.45 -1.65 0.70 -30.95 13.95 -46.80 21.20 -11.15 5.05 -12.55 5.55 -14.35 5.15z"/>
  <path d="M361.10 345.15 c-0.50 -0.80 -5.55 -7.90 -11.15 -15.85 -5.60 -7.95 -11 -15.60 -11.95 -17 -6.35 -9.15 -7.70 -11.15 -8.30 -11.80 -0.55 -0.65 -0.50 -1.05 0.05 -2.25 3.40 -7.35 4.30 -9.35 5.25 -11.50 0.60 -1.35 1.60 -3.60 2.25 -5 0.60 -1.35 1.45 -3.30 1.90 -4.25 1.50 -3.55 3 -6.80 4.35 -9.75 1.35 -2.95 2.45 -5.30 4.80 -10.75 0.70 -1.50 1.65 -3.60 2.20 -4.65 0.55 -1.10 0.90 -2.10 0.75 -2.35 -0.25 -0.40 -3.65 -2.10 -10 -5 -1.90 -0.90 -5.75 -2.70 -8.50 -4 -2.75 -1.30 -6.55 -3.10 -8.45 -3.95 -1.90 -0.90 -5.05 -2.35 -7 -3.25 -1.95 -0.95 -6.25 -2.95 -9.55 -4.50 -3.30 -1.55 -6.35 -3 -6.75 -3.20 -0.65 -0.40 -0.75 -3.85 -0.75 -26.10 l0 -25.65 11.50 -5.20 c6.35 -2.85 12.85 -5.80 14.50 -6.55 1.65 -0.80 8 -3.65 14.10 -6.40 6.10 -2.70 11.25 -5.25 11.35 -5.60 0.15 -0.35 -0.80 -3.05 -2.15 -6 -1.35 -2.95 -3.90 -8.60 -5.70 -12.60 -8.75 -19.55 -12.30 -27.45 -13.35 -29.55 l-1.10 -2.30 3.75 -8.45 c3.55 -8 4.35 -9.85 7.60 -16.95 0.75 -1.65 2.20 -4.90 3.25 -7.25 2.30 -5.20 4.10 -9.10 6.30 -13.90 1.85 -4 2 -4.85 1.10 -5.40 -0.30 -0.20 -0.40 -0.15 -0.25 0.15 0.35 0.50 -0.25 2 -3.60 9.30 -0.85 1.85 -1.55 3.45 -1.55 3.55 0 0.10 -0.75 1.85 -1.70 3.90 -1.75 3.70 -9.65 21.20 -13.45 29.80 -1.80 4.15 -2.85 5.60 -2.85 4.05 0 -0.30 1.65 -4.30 3.70 -8.90 3.45 -7.80 4.30 -9.60 7.60 -16.90 0.75 -1.60 2.15 -4.80 3.20 -7.15 1.05 -2.35 2.45 -5.50 3.15 -7 0.65 -1.50 1.75 -3.85 2.35 -5.25 0.60 -1.35 1.30 -2.85 1.55 -3.30 0.35 -0.70 -1 -1.45 -7.95 -4.60 -35.50 -16.05 -41.70 -18.85 -42.10 -18.85 -0.40 0 -50 22.30 -50.35 22.70 -0.10 0.10 0.95 2.60 2.30 5.60 9.10 19.85 18.70 41.70 18.90 42.95 0.50 2.95 -0.80 0.40 -7.10 -13.75 -3.50 -7.85 -8.50 -18.95 -11.10 -24.70 -2.55 -5.75 -4.50 -10.65 -4.30 -10.85 0.45 -0.45 7.85 -3.90 24.65 -11.45 5.65 -2.55 13.90 -6.30 18.35 -8.30 4.45 -2.05 8.45 -3.70 8.85 -3.70 0.40 0 2.60 0.85 4.90 1.95 2.30 1.05 6.30 2.85 8.90 4.05 2.60 1.15 6.40 2.90 8.45 3.80 2.05 0.95 3.80 1.60 3.90 1.50 0.30 -0.25 -25.40 -11.80 -26.35 -11.80 -1 0 -51.50 22.80 -52.35 23.65 -0.45 0.45 -0.20 1.50 1.30 4.85 5.55 12.30 19.75 43.95 20.20 45.10 0.45 1.15 0.40 1.60 -0.45 2.75 -0.55 0.75 -7.75 10.85 -15.95 22.40 -8.20 11.55 -15.15 21.30 -15.50 21.65 -0.45 0.50 -3.30 -0.60 -14.55 -5.65 -7.65 -3.50 -15.75 -7.15 -17.95 -8.15 -2.20 -0.95 -4.30 -2.05 -4.65 -2.35 -0.50 -0.45 -0.55 -6.15 -0.10 -29.80 0.30 -16.05 0.70 -29.35 0.90 -29.55 0.45 -0.40 32.40 -15.15 39.55 -18.25 2.90 -1.25 5.55 -2.50 5.90 -2.85 0.40 -0.40 0.25 -1.20 -0.70 -3.30 -3.15 -6.70 -4.10 -9 -3.75 -9 0.20 0 0.10 -0.20 -0.20 -0.40 -0.55 -0.35 -1.55 -2.40 -4.70 -9.60 -1.05 -2.35 -2.80 -6.25 -3.95 -8.65 -1.10 -2.45 -2.05 -4.65 -2.05 -4.90 0 -0.25 -0.45 -1.15 -1 -2.05 -0.55 -0.90 -1 -2.05 -1 -2.50 0 -0.50 -0.20 -0.90 -0.45 -0.90 -0.25 0 -0.55 -0.40 -0.70 -0.90 -0.15 -0.45 -0.80 -2.15 -1.55 -3.75 l-1.30 -2.85 75 0 74.95 0 -0.75 1.75 c-0.40 0.95 -0.60 1.75 -0.40 1.75 0.15 0 -0.10 0.35 -0.50 0.80 -0.45 0.40 -0.70 1 -0.55 1.25 0.20 0.25 0.10 0.45 -0.15 0.45 -0.45 0 -1.85 3.20 -1.65 3.80 0.10 0.20 -0.10 0.50 -0.40 0.65 -0.60 0.40 -2.20 4.05 -1.75 4.05 0.15 0 -0.10 0.35 -0.55 0.80 -0.60 0.65 -0.65 0.95 -0.20 1.50 0.45 0.55 0.45 0.65 -0.10 0.45 -0.50 -0.20 -1.05 0.55 -1.85 2.35 -0.60 1.45 -1.10 2.85 -1.05 3.10 0 0.25 -0.20 0.60 -0.55 0.80 -0.30 0.20 -0.60 0.85 -0.65 1.40 -0.05 0.60 -0.20 1.10 -0.40 1.10 -0.35 0 -1.30 2.15 -1.55 3.50 -0.10 0.40 -0.45 1.05 -0.80 1.40 -0.35 0.40 -0.50 0.90 -0.35 1.15 0.20 0.25 0.10 0.45 -0.15 0.45 -0.45 0 -1.95 3.45 -1.75 4.10 0.10 0.20 -0.05 0.40 -0.25 0.40 -0.60 0 -1.65 2.50 -1.35 3.05 0.20 0.25 0.05 0.45 -0.25 0.45 -0.30 0 -0.45 0.20 -0.30 0.45 0.20 0.25 0.10 0.55 -0.15 0.65 -0.25 0.05 -0.55 0.50 -0.65 0.90 -0.10 0.40 -0.25 0.85 -0.45 1 -0.60 0.55 -2.30 4.75 -2.15 5.25 0.15 0.25 6.45 3.30 14.10 6.70 7.60 3.45 16.80 7.55 20.35 9.20 3.60 1.60 7.70 3.45 9.15 4.10 l2.60 1.20 0 29.50 c0 19.10 0.20 29.60 0.50 29.80 0.35 0.20 0.55 -10 0.60 -30.10 l0.15 -30.40 0.25 29.50 0.25 29.50 1.75 0.90 c0.95 0.45 7.05 3.25 13.50 6.15 6.45 2.90 15.70 7.05 20.50 9.25 4.80 2.15 9 3.95 9.25 3.95 0.30 0 1.95 -3.35 3.70 -7.40 1.80 -4.05 3.95 -8.90 4.85 -10.85 2.60 -5.70 4.20 -9.25 6.20 -13.75 2.30 -5.20 4.65 -10.45 6.20 -13.75 1.05 -2.20 1.10 -2.65 0.50 -3.75 -0.75 -1.45 -3.70 -7.90 -3.70 -8.20 0 -0.15 -1.10 -2.60 -2.50 -5.55 -1.35 -2.95 -2.50 -5.40 -2.50 -5.55 0 -0.10 -0.85 -2.05 -1.95 -4.30 -1.05 -2.30 -2.30 -5.05 -2.80 -6.15 -0.50 -1.10 -1.55 -3.45 -2.35 -5.25 -1.85 -4.10 -3.45 -7.60 -4.85 -10.60 -1.10 -2.55 -1.35 -4.15 -0.55 -3.65 0.40 0.25 3 5.40 3 5.95 0 0.10 0.90 2.20 2.05 4.65 1.10 2.40 2.30 5.10 2.70 5.90 0.35 0.85 1.50 3.30 2.50 5.50 1.05 2.20 3.15 6.95 4.75 10.50 1.60 3.60 3.70 8.30 4.75 10.50 3.65 7.90 3.55 7 1.35 12.05 -1.10 2.45 -2.55 5.75 -3.30 7.30 -3.25 7.25 -4.15 9.20 -7.80 17.40 -9.40 21 -9.25 20.75 -10.55 20.65 l-1.20 -0.10 1.15 0.55 c1.60 0.80 1.90 0.35 5.85 -8.60 1.85 -4.25 4 -9.10 4.75 -10.75 3.20 -7 4.20 -9.20 6 -13.25 2.45 -5.50 4.20 -9.35 6.35 -14 l1.75 -3.75 -1.05 -2 c-1.15 -2.30 -4.05 -8.70 -4.05 -8.95 0 -0.15 -1.10 -2.60 -2.50 -5.55 -1.35 -2.95 -2.50 -5.40 -2.50 -5.55 0 -0.10 -0.85 -2.05 -1.95 -4.30 -1.05 -2.30 -2.30 -5.05 -2.80 -6.15 -0.50 -1.10 -1.55 -3.45 -2.35 -5.25 -0.80 -1.80 -2 -4.35 -2.60 -5.75 -0.65 -1.35 -1.60 -3.50 -2.20 -4.75 -1.20 -2.70 -1.15 -2.75 3.40 -4.75 1.80 -0.75 4.60 -2 6.25 -2.75 1.65 -0.80 4.25 -1.95 5.75 -2.65 1.50 -0.65 4.35 -1.95 6.25 -2.85 1.95 -0.90 5.40 -2.45 7.75 -3.50 2.35 -1.05 5.55 -2.45 7.15 -3.20 4.65 -2.10 7.95 -3.60 10.60 -4.80 1.40 -0.60 2.95 -1.30 3.50 -1.55 0.70 -0.35 1.55 -0.20 3 0.50 1.10 0.50 5.05 2.30 8.75 3.95 3.70 1.65 9.55 4.30 13 5.85 3.45 1.55 10.50 4.75 15.75 7.10 8.55 3.85 12.20 5.55 12.65 5.90 0.15 0.15 -2.05 5.15 -10.90 24.75 -11.35 25.15 -11.55 25.75 -11.30 27 0.10 0.70 1.10 3.15 2.20 5.50 2.25 4.80 6.30 13.70 9.10 20 1.05 2.35 3.95 8.75 6.45 14.20 2.50 5.50 4.55 10.10 4.55 10.30 0 0.15 -1.75 1.10 -3.85 2 -2.15 0.95 -6.20 2.75 -9.05 4.10 -2.85 1.30 -5.25 2.40 -5.35 2.40 -0.10 0 -2.05 0.85 -4.35 1.95 -5.65 2.65 -28.45 12.80 -29.50 13.20 -0.55 0.20 -5.35 -1.70 -12.50 -4.95 -6.40 -2.90 -17.80 -8.10 -25.35 -11.50 -7.55 -3.45 -14.05 -6.20 -14.50 -6.10 -0.45 0.10 -1.25 1.05 -1.80 2.15 -0.95 1.90 -1.60 3.30 -5.15 11.25 -7.95 17.55 -15.75 34.30 -16.15 34.50 -0.25 0.20 -11.20 0.25 -24.35 0.15 -13.10 -0.10 -24.35 -0.05 -24.90 0.10 -0.85 0.20 -2.45 3.25 -7.70 14.85 -3.65 8.05 -7.25 16 -8 17.65 -7.85 17.25 -7.65 16.80 -6.95 17.50 0.40 0.40 6.45 3.15 13.45 6.20 7 3 17.35 7.50 23 9.95 l10.25 4.45 0.15 29.70 0.10 29.75 -4.35 1.95 c-2.45 1.05 -7.20 3.20 -10.65 4.80 -11.85 5.40 -22.05 9.95 -22.25 9.95 -0.10 0 -0.60 -0.60 -1.15 -1.35z m81.40 -196.65 c-0.95 -0.55 -1.95 -0.95 -2.25 -0.95 -0.25 0 0.30 0.40 1.25 0.95 0.95 0.55 2 0.95 2.25 0.95 0.30 0 -0.30 -0.40 -1.25 -0.95z m-5 -2.25 c-0.70 -0.40 -1.45 -0.70 -1.75 -0.70 -0.25 0 0.05 0.30 0.75 0.70 0.70 0.40 1.50 0.70 1.75 0.70 0.30 0 -0.05 -0.30 -0.75 -0.70z m-6 -2.75 c-0.95 -0.55 -1.95 -0.95 -2.25 -0.95 -0.25 0 0.30 0.40 1.25 0.95 0.95 0.55 2 0.95 2.25 0.95 0.30 0 -0.30 -0.40 -1.25 -0.95z m-5 -2.25 c-0.70 -0.40 -1.45 -0.70 -1.75 -0.70 -0.25 0 0.05 0.30 0.75 0.70 0.70 0.40 1.50 0.70 1.75 0.70 0.30 0 -0.05 -0.30 -0.75 -0.70z m-76.05 -93.50 c-0.45 -0.40 -5.95 -2.75 -5.95 -2.50 0 0.15 1.20 0.80 2.65 1.45 2.45 1.15 3.80 1.60 3.30 1.05z m-6.50 -2.95 c-0.25 -0.25 -15.80 -7.25 -16.95 -7.65 -1.45 -0.50 1.30 1.20 3 1.85 0.95 0.40 3.80 1.60 6.25 2.75 2.50 1.15 5.05 2.30 5.75 2.60 1.25 0.60 2.35 0.80 1.95 0.45z"/>
  <path d="M197.75 331 c-0.20 -0.30 0.50 -0.50 1.70 -0.50 1.15 0 2.05 0.25 2.05 0.50 0 0.30 -0.75 0.50 -1.70 0.50 -0.95 0 -1.90 -0.20 -2.05 -0.50z"/>
  <path d="M196.15 326.30 c-23 -24.05 -45 -47.20 -49.50 -52.05 -3.05 -3.30 -14.90 -15.80 -26.35 -27.75 l-20.80 -21.75 -0.05 -4.75 c0 -2.60 -0.30 -13.95 -0.60 -25.15 l-0.60 -20.40 -13.25 -6 c-7.30 -3.30 -14.60 -6.60 -16.25 -7.40 -1.65 -0.75 -7.25 -3.25 -12.40 -5.60 l-9.40 -4.20 0.30 -1.50 c0.15 -0.80 0.50 -1.60 0.80 -1.80 0.30 -0.15 0.50 -0.45 0.45 -0.65 -0.10 -0.60 1.20 -3.80 1.60 -3.80 0.20 0 0.35 -0.15 0.30 -0.35 -0.20 -0.70 1.30 -4.15 1.75 -4.15 0.20 0 0.30 -0.20 0.10 -0.45 -0.15 -0.25 0 -0.75 0.35 -1.15 0.35 -0.35 0.75 -1.10 0.80 -1.65 0.10 -0.55 0.40 -1.05 0.65 -1.15 0.25 -0.10 0.45 -0.60 0.45 -1.15 0 -0.50 0.20 -0.95 0.50 -0.95 0.25 0 0.45 -0.15 0.40 -0.35 -0.15 -0.65 1.25 -4.15 1.70 -4.15 0.20 0 0.35 -0.15 0.30 -0.35 -0.20 -0.70 1.30 -4.15 1.75 -4.15 0.20 0 0.30 -0.20 0.10 -0.45 -0.15 -0.25 0.05 -0.80 0.45 -1.20 0.40 -0.40 0.60 -0.85 0.45 -1.05 -0.20 -0.15 -0.05 -0.30 0.25 -0.30 0.30 0 0.45 -0.35 0.30 -0.75 -0.20 -0.40 -0.05 -0.75 0.25 -0.75 0.30 0 0.55 -0.45 0.55 -1 0 -0.55 0.20 -1 0.40 -1 0.20 0 0.45 -0.50 0.45 -1.10 0.05 -0.65 0.35 -1.20 0.65 -1.30 0.25 -0.10 0.50 -0.60 0.50 -1.15 0 -0.50 0.25 -0.95 0.55 -0.95 0.25 0 0.35 -0.25 0.20 -0.50 -0.15 -0.25 -0.05 -0.50 0.25 -0.50 0.30 0 0.40 -0.20 0.25 -0.50 -0.15 -0.25 -0.05 -0.50 0.20 -0.50 0.30 0 0.55 -0.45 0.55 -1 0 -1.10 1 -3.50 1.45 -3.50 0.20 0 0.35 -0.50 0.40 -1.10 0.05 -0.55 0.30 -1.20 0.50 -1.35 0.20 -0.15 0.45 -0.65 0.55 -1.05 0.10 -0.40 0.40 -0.85 0.65 -0.90 0.25 -0.10 0.35 -0.40 0.15 -0.65 -0.15 -0.25 0 -0.45 0.30 -0.45 0.30 0 0.40 -0.20 0.25 -0.50 -0.15 -0.25 0.20 -0.60 0.85 -0.75 2.35 -0.55 58.05 0 58.25 0.55 0.25 0.70 19.50 28.15 39.25 56 3.95 5.50 10.30 14.45 14.15 19.90 9 12.70 17.70 24.75 19.15 26.60 1.15 1.45 1 1.10 -0.75 -1.95 -0.30 -0.55 -0.45 -1.35 -0.30 -1.75 0.25 -0.55 0.55 -0.40 1.35 0.70 0.60 0.80 1.45 1.85 1.95 2.30 0.45 0.50 0.85 1.15 0.85 1.40 0 0.30 0.15 0.50 0.40 0.50 0.20 0 0.65 0.65 1 1.45 0.35 0.80 1.20 2.05 1.85 2.75 0.70 0.75 1.25 1.55 1.25 1.80 0 0.25 0.30 0.65 0.65 0.85 0.35 0.20 0.90 1 1.20 1.80 0.35 0.75 0.85 1.35 1.15 1.35 0.25 0 0.50 0.25 0.50 0.50 0 0.75 4.10 6.50 4.60 6.50 0.20 0 0.40 0.35 0.40 0.75 0 0.40 0.15 0.75 0.40 0.75 0.20 0 0.65 0.60 0.95 1.40 0.35 0.75 1.55 2.35 2.65 3.60 1.10 1.25 2 2.50 2 2.80 0 0.35 0.35 0.70 0.75 0.90 0.40 0.15 0.75 0.60 0.75 1.05 0 0.40 0.25 0.75 0.50 0.75 0.30 0 0.50 0.35 0.50 0.75 0 0.40 0.45 1.20 1 1.75 0.55 0.55 1 1.25 1 1.50 0 0.30 0.35 0.65 0.75 0.80 0.40 0.20 0.75 0.60 0.75 1 0 0.40 0.25 0.70 0.50 0.70 0.30 0 0.50 0.35 0.50 0.75 0 0.40 0.25 0.75 0.50 0.75 0.30 0 0.50 0.30 0.50 0.70 0 0.35 0.55 1.20 1.20 1.90 0.60 0.70 1.30 1.65 1.45 2.10 0.20 0.45 0.55 0.80 0.85 0.80 0.25 0 0.50 0.35 0.50 0.75 0 0.40 0.25 0.75 0.50 0.75 0.30 0 0.50 0.30 0.50 0.70 0 0.35 0.55 1.25 1.25 2 0.70 0.75 1.25 1.55 1.25 1.85 0 0.25 0.25 0.45 0.50 0.45 0.30 0 0.50 0.30 0.50 0.70 0 0.40 0.55 1.20 1.25 1.85 0.65 0.65 1.25 1.50 1.25 1.85 0 0.30 0.15 0.60 0.40 0.60 0.20 0 0.65 0.65 1 1.45 0.35 0.80 1.20 2.05 1.85 2.75 0.70 0.75 1.25 1.55 1.25 1.80 0 0.25 0.30 0.65 0.65 0.85 0.35 0.20 0.90 1 1.20 1.80 0.35 0.75 0.85 1.35 1.15 1.35 0.25 0 0.50 0.30 0.50 0.70 0 0.35 0.55 1.25 1.20 1.95 0.70 0.75 1.40 1.80 1.55 2.40 0.30 0.95 0.20 1.05 -0.95 0.85 -1.10 -0.20 -1.20 -0.15 -0.75 0.45 0.50 0.55 0.30 1 -0.85 2.25 -3.65 4 -38.15 40.35 -45.75 48.20 l-5.40 5.55 -3.40 -3.55z m54.40 -54.70 c-0.25 -0.50 -0.90 -1.25 -1.35 -1.65 -0.55 -0.45 -0.45 -0.10 0.30 0.95 1.30 1.75 1.80 2.10 1.05 0.70z m-6.40 -9.15 c-0.50 -0.85 -1.30 -1.90 -1.85 -2.35 -0.50 -0.45 -0.20 0.20 0.75 1.55 1.85 2.65 2.45 3.10 1.10 0.80z m-12.95 -18.45 c-0.50 -0.80 -1 -1.40 -1.10 -1.30 -0.20 0.25 1.40 2.80 1.75 2.80 0.10 0 -0.20 -0.65 -0.65 -1.50z m-12.70 -18 c-0.55 -0.80 -1.30 -1.65 -1.60 -1.80 -0.35 -0.20 0.05 0.45 0.80 1.45 1.70 2.20 2.30 2.50 0.80 0.35z m-3.80 -5.35 c-1.70 -2.60 -3.70 -5.30 -3.70 -4.95 0 0.40 4.10 6.30 4.40 6.30 0.10 0 -0.20 -0.60 -0.70 -1.35z m-8.45 -12 c-1.70 -2.65 -2.25 -3.35 -2.25 -3 0 0.50 2.55 4.35 2.85 4.35 0.15 0 -0.15 -0.60 -0.60 -1.35z"/>
  <path d="M0 269.05 c0 -0.70 0.95 -1.20 7.25 -4.05 3.30 -1.45 7.90 -3.50 10.15 -4.55 2.30 -1.10 4.25 -1.95 4.35 -1.95 0.10 0 2.55 -1.10 5.50 -2.50 2.95 -1.35 5.40 -2.50 5.55 -2.50 0.10 0 2.05 -0.90 4.30 -1.95 2.30 -1.05 4.90 -2.25 5.80 -2.60 0.85 -0.40 1.60 -0.85 1.60 -1.05 0 -0.25 0.35 -0.40 0.75 -0.40 1.25 0 0.85 1.50 -0.55 2 -0.70 0.30 -2.55 1.10 -4.10 1.80 -4.60 2.15 -10.20 4.70 -12.35 5.70 -1.10 0.50 -7.80 3.50 -14.85 6.70 -7.05 3.20 -13 5.80 -13.15 5.80 -0.15 0 -0.25 -0.20 -0.25 -0.45z"/>
  <path d="M298.75 199.75 c0 -14.30 0.05 -20.10 0.10 -12.85 0.10 7.25 0.10 18.95 0 26 -0.05 7.05 -0.10 1.15 -0.10 -13.15z"/>
  <path d="M236.25 147 c0.15 -0.25 0.65 -0.50 1.05 -0.50 0.40 0 0.70 0.25 0.70 0.50 0 0.30 -0.45 0.50 -1.05 0.50 -0.55 0 -0.85 -0.20 -0.70 -0.50z"/>
  <path d="M160.85 144.75 c-0.40 -0.40 -1.30 -1.55 -1.90 -2.60 -0.65 -1.05 -1.45 -2.25 -1.80 -2.65 -0.35 -0.40 -6.15 -8.60 -12.90 -18.25 -6.70 -9.60 -12.40 -17.70 -12.65 -18 -1.40 -1.75 -2.10 -3.10 -2.10 -4.10 0 -1.30 0.75 -1.55 1.20 -0.40 0.15 0.40 5.50 8.20 11.95 17.35 6.45 9.15 13.35 19 15.35 21.90 2 2.90 4.10 5.75 4.65 6.40 l1 1.10 -1.05 0 c-0.55 0 -1.35 -0.35 -1.75 -0.75z"/>
  <path d="M197.80 108.75 c0.20 -11.55 0.50 -25.15 0.70 -30.25 0.25 -5.55 0.30 1.20 0.15 16.75 -0.30 30 -0.35 33.65 -0.85 34.10 -0.20 0.20 -0.20 -9.10 0 -20.60z"/>
  <path d="M46 48.05 c0 -0.25 -0.65 -1.90 -1.45 -3.65 -0.80 -1.75 -2.05 -4.45 -2.75 -6 -0.70 -1.60 -1.85 -4.10 -2.50 -5.50 -0.65 -1.45 -1.70 -3.75 -2.30 -5.15 -0.60 -1.35 -1.60 -3.60 -2.25 -5 -0.60 -1.35 -1.75 -3.85 -2.50 -5.50 -0.75 -1.65 -2.10 -4.65 -3.05 -6.65 -0.95 -2.05 -1.70 -3.80 -1.70 -3.90 0 -0.10 -0.65 -1.60 -1.50 -3.30 -0.80 -1.70 -1.50 -3.15 -1.50 -3.25 0 -0.10 16.75 -0.15 37.25 -0.15 l37.25 0 0 12.75 c0 10.50 -0.10 12.75 -0.70 12.75 -0.35 0 -2.45 0.80 -4.60 1.80 -14.20 6.50 -46.95 21.20 -47.30 21.20 -0.20 0 -0.40 -0.20 -0.40 -0.45z"/>
  <path d="M446.50 47.40 c0 -0.35 1.30 -1.20 2.90 -1.85 1.55 -0.70 4.75 -2.10 7.10 -3.20 2.35 -1.05 4.95 -2.20 5.75 -2.60 0.85 -0.35 3.30 -1.50 5.50 -2.50 2.20 -1.05 5.90 -2.70 8.25 -3.75 2.35 -1.05 5.60 -2.50 7.25 -3.25 5.05 -2.30 7.90 -3.60 10.50 -4.75 1.40 -0.60 2.90 -1.30 3.35 -1.55 0.50 -0.25 1.40 -0.45 2 -0.45 1.10 0 1.10 0 0.15 0.65 -0.55 0.40 -4.15 2.10 -8 3.85 -3.85 1.70 -13.35 6 -21.15 9.55 -7.80 3.55 -14.25 6.45 -14.35 6.45 -0.05 0 -2.10 0.90 -4.45 2 -4.80 2.25 -4.80 2.25 -4.80 1.40z"/>
  <path d="M100.20 12.50 c0 -7 0.10 -9.90 0.15 -6.40 0.10 3.55 0.10 9.25 0 12.75 -0.05 3.55 -0.15 0.65 -0.15 -6.35z"/>
 </g>
 <g fill="#b1f6cb">
  <path d="M99.90 588 c-0.05 -6.60 -0.10 -12.35 -0.10 -12.80 -0.05 -1.15 51.05 -24.30 52.25 -23.70 0.40 0.25 1.40 1.95 2.20 3.85 0.80 1.85 2.55 5.70 3.85 8.55 1.30 2.80 2.40 5.20 2.40 5.35 0 0.10 1 2.30 2.15 4.85 6.50 13.80 10.85 23.80 10.85 24.80 l0 1.10 -36.75 0 -36.75 0 -0.10 -12z"/>
  <path d="M425 599.45 c0 -0.30 1.65 -4.20 3.65 -8.65 14.55 -32.20 17.65 -38.80 18.10 -39 0.25 -0.10 4.35 1.55 9 3.70 19 8.60 38.65 17.50 41.40 18.70 l2.85 1.25 0 12.25 0 12.30 -37.50 0 c-27.15 0 -37.50 -0.15 -37.50 -0.55z"/>
  <path d="M268.80 499.10 c-0.35 -0.55 -10.30 -22.55 -10.85 -24 -0.55 -1.40 -2.70 -6.25 -6.40 -14.25 -0.85 -1.85 -1.55 -3.50 -1.55 -3.60 0 -0.15 -0.65 -1.65 -1.50 -3.35 -0.80 -1.70 -1.50 -3.25 -1.50 -3.50 0 -0.45 1.95 -1.35 18.50 -8.90 5.90 -2.70 12.55 -5.75 14.75 -6.75 2.20 -1.05 7.45 -3.45 11.70 -5.35 l7.65 -3.50 9.35 4.10 c5.10 2.25 9.65 4.30 10.10 4.50 1 0.50 18.20 8.30 33.70 15.25 4.15 1.85 7.75 3.60 8.10 3.95 0.40 0.40 -3.40 6.10 -15.55 23.05 l-16.10 22.50 -30.05 0.15 c-16.55 0.05 -30.20 -0.05 -30.35 -0.30z"/>
  <path d="M0 400.25 c0 -38.35 0.20 -69.75 0.45 -69.75 0.20 0 2.50 1 5.10 2.20 2.60 1.20 5.70 2.65 6.95 3.20 5.75 2.60 25.05 11.35 27.75 12.60 1.65 0.75 3.50 1.55 4.10 1.70 1.30 0.40 2.60 1.80 1.65 1.80 -0.35 0 -0.50 0.35 -0.30 0.75 0.15 0.40 0.05 0.75 -0.25 0.75 -0.30 0 -0.35 0.25 -0.20 0.50 0.15 0.30 0.05 0.50 -0.25 0.50 -0.30 0 -0.40 0.25 -0.25 0.50 0.15 0.30 0.05 0.50 -0.25 0.50 -0.30 0 -0.40 0.25 -0.25 0.50 0.15 0.30 0.05 0.50 -0.30 0.50 -0.35 0 -0.50 0.15 -0.30 0.30 0.15 0.20 -0.05 0.65 -0.45 1.05 -0.40 0.45 -0.65 1.10 -0.50 1.45 0.15 0.40 0.05 0.70 -0.25 0.70 -0.30 0 -0.35 0.25 -0.20 0.50 0.15 0.30 0.05 0.50 -0.25 0.50 -0.30 0 -0.40 0.25 -0.25 0.50 0.15 0.30 0.05 0.50 -0.25 0.50 -0.30 0 -0.40 0.25 -0.25 0.50 0.15 0.30 0.10 0.50 -0.20 0.50 -0.30 0 -0.40 0.35 -0.25 0.75 0.20 0.40 0.05 0.75 -0.30 0.75 -0.30 0 -0.40 0.25 -0.25 0.50 0.15 0.30 0.05 0.50 -0.25 0.50 -0.30 0 -0.40 0.25 -0.25 0.50 0.15 0.30 0.05 0.50 -0.30 0.50 -0.35 0 -0.45 0.15 -0.30 0.35 0.20 0.15 0 0.55 -0.45 0.90 -0.45 0.30 -0.85 1.15 -0.85 1.90 -0.05 0.75 -0.30 1.35 -0.50 1.35 -0.25 0 -0.25 0.25 -0.10 0.50 0.15 0.30 0.05 0.50 -0.25 0.50 -0.30 0 -0.40 0.25 -0.25 0.50 0.15 0.30 0.05 0.50 -0.25 0.50 -0.30 0 -0.40 0.25 -0.25 0.50 0.15 0.30 0.05 0.50 -0.25 0.50 -0.35 0 -0.50 0.35 -0.30 0.75 0.15 0.40 0.05 0.75 -0.25 0.75 -0.30 0 -0.35 0.25 -0.20 0.50 0.15 0.30 0.05 0.50 -0.25 0.50 -0.30 0 -0.40 0.25 -0.25 0.50 0.15 0.30 0.05 0.50 -0.25 0.50 -0.30 0 -0.40 0.25 -0.25 0.50 0.15 0.30 0.05 0.50 -0.25 0.50 -0.35 0 -0.50 0.35 -0.30 0.75 0.15 0.40 0.05 0.75 -0.25 0.75 -0.30 0 -0.35 0.25 -0.20 0.50 0.15 0.30 0.05 0.50 -0.25 0.50 -0.30 0 -0.40 0.25 -0.25 0.50 0.15 0.30 0.05 0.50 -0.25 0.50 -0.30 0 -0.40 0.25 -0.25 0.50 0.15 0.30 0.10 0.50 -0.20 0.50 -0.30 0 -0.40 0.35 -0.25 0.75 0.20 0.45 -0.05 0.90 -0.55 1.05 -0.45 0.20 -0.70 0.65 -0.55 1 0.15 0.40 0.05 0.70 -0.25 0.70 -0.30 0 -0.35 0.25 -0.20 0.50 0.15 0.30 0.05 0.50 -0.30 0.50 -0.35 0 -0.50 0.15 -0.30 0.30 0.15 0.20 -0.05 0.65 -0.45 1.05 -0.40 0.45 -0.65 1.05 -0.50 1.40 0.15 0.40 -0.10 0.80 -0.55 0.95 -0.40 0.20 -0.65 0.65 -0.45 1.05 0.15 0.40 0.05 0.75 -0.25 0.75 -0.30 0 -0.35 0.25 -0.20 0.50 0.15 0.30 0.10 0.50 -0.20 0.50 -0.30 0 -0.40 0.35 -0.25 0.75 0.20 0.40 0.05 0.75 -0.30 0.75 -0.30 0 -0.40 0.25 -0.25 0.50 0.15 0.30 0.05 0.50 -0.25 0.50 -0.30 0 -0.40 0.25 -0.25 0.50 0.15 0.30 0.05 0.50 -0.25 0.50 -0.30 0 -0.40 0.25 -0.25 0.50 0.15 0.30 0.10 0.50 -0.10 0.50 -0.80 0 -0.30 4.15 0.55 4.75 0.45 0.35 0.65 0.75 0.45 0.90 -0.15 0.20 -0.05 0.35 0.25 0.35 0.30 0 0.45 0.30 0.30 0.70 -0.15 0.35 0.10 1 0.50 1.45 0.40 0.40 0.60 0.85 0.45 1.05 -0.20 0.15 -0.05 0.30 0.30 0.30 0.35 0 0.45 0.25 0.30 0.50 -0.15 0.30 -0.05 0.50 0.25 0.50 0.30 0 0.40 0.25 0.25 0.50 -0.15 0.30 -0.05 0.50 0.25 0.50 0.30 0 0.40 0.25 0.25 0.50 -0.15 0.30 -0.10 0.50 0.20 0.50 0.30 0 0.40 0.30 0.25 0.70 -0.15 0.35 0.10 1 0.50 1.45 0.40 0.40 0.60 0.85 0.45 1.05 -0.20 0.15 -0.05 0.30 0.30 0.30 0.35 0 0.45 0.25 0.30 0.50 -0.15 0.30 -0.10 0.50 0.20 0.50 0.30 0 0.40 0.35 0.25 0.75 -0.20 0.40 -0.05 0.75 0.30 0.75 0.30 0 0.40 0.25 0.25 0.50 -0.15 0.30 -0.05 0.50 0.25 0.50 0.30 0 0.40 0.25 0.25 0.50 -0.15 0.30 -0.05 0.50 0.25 0.50 0.30 0 0.40 0.25 0.25 0.50 -0.15 0.30 -0.05 0.50 0.25 0.50 0.30 0 0.40 0.20 0.25 0.50 -0.40 0.65 1.55 5 2.20 5 0.30 0 0.40 0.30 0.25 0.70 -0.15 0.35 0.10 1 0.50 1.45 0.40 0.40 0.60 0.85 0.45 1.05 -0.20 0.15 -0.05 0.30 0.30 0.30 0.35 0 0.45 0.25 0.30 0.50 -0.15 0.30 -0.05 0.50 0.25 0.50 0.30 0 0.40 0.25 0.25 0.50 -0.15 0.30 -0.10 0.50 0.20 0.50 0.30 0 0.40 0.30 0.25 0.70 -0.15 0.35 0.10 1 0.50 1.45 0.40 0.40 0.60 0.85 0.45 1.05 -0.20 0.15 -0.05 0.30 0.30 0.30 0.35 0 0.45 0.25 0.30 0.50 -0.15 0.30 -0.15 0.50 0.10 0.50 0.20 0 0.45 0.55 0.45 1.20 0.10 1.40 4.05 9.90 4.90 10.40 0.30 0.20 0.35 0.40 0.05 0.40 -0.25 0 -0.25 0.20 0.10 0.40 0.35 0.20 0.45 0.60 0.25 0.95 -0.30 0.45 -8.75 4.65 -9.40 4.65 -0.10 0 -1.70 0.70 -3.55 1.55 -1.90 0.85 -4.60 2.10 -6.05 2.75 -3.25 1.50 -7.30 3.35 -10.70 4.90 -1.45 0.65 -3.75 1.70 -5.15 2.30 -1.35 0.60 -3.95 1.80 -5.75 2.60 -1.80 0.85 -3.75 1.70 -4.35 1.95 l-1.15 0.45 0 -69.75z"/>
  <path d="M595.50 468.50 c-1.65 -0.85 -3.55 -1.75 -10.10 -4.70 -1.60 -0.70 -4.10 -1.85 -5.50 -2.50 -1.45 -0.65 -3.75 -1.70 -5.15 -2.30 -2.40 -1.05 -5.70 -2.55 -10 -4.55 -8.25 -3.80 -10.90 -4.95 -11.25 -4.95 -0.85 0 -0.80 -1.30 0.05 -3 0.50 -0.95 1.50 -3.10 2.25 -4.75 1.40 -3.20 2.90 -6.50 5.30 -11.75 0.85 -1.80 1.90 -4.15 2.40 -5.25 0.85 -1.90 1.85 -4.15 4.70 -10.35 0.65 -1.45 1.90 -4.20 2.75 -6.15 0.90 -1.90 2.05 -4.35 2.60 -5.40 1.15 -2.30 1.20 -3.20 0.25 -5.15 -0.40 -0.80 -1.20 -2.55 -1.80 -3.95 -0.60 -1.35 -1.75 -3.85 -2.50 -5.50 -0.75 -1.65 -1.90 -4.10 -2.50 -5.50 -0.60 -1.35 -1.65 -3.75 -2.35 -5.25 -0.70 -1.50 -1.70 -3.70 -2.20 -4.85 -0.50 -1.20 -1.40 -3.10 -1.90 -4.25 -0.50 -1.20 -1.75 -3.85 -2.70 -5.90 -2.20 -4.65 -3.75 -8.10 -4.35 -9.80 -0.60 -1.45 -3.15 -0.15 22.50 -11.70 8.65 -3.95 17.40 -7.90 19.40 -8.80 2.05 -0.95 3.90 -1.70 4.15 -1.70 0.25 0 0.45 27.15 0.45 69.50 l0 69.50 -1.35 -0.05 c-0.80 0 -2.20 -0.45 -3.15 -0.95z"/>
  <path d="M418.75 426.90 c-10.20 -14.35 -18.55 -26.50 -18.65 -27.05 -0.20 -0.95 0.30 -1.75 4.65 -7.85 4.45 -6.30 7.50 -10.65 9.50 -13.50 4.10 -5.90 6.85 -9.85 9.15 -13.05 1.30 -1.85 4.60 -6.55 7.35 -10.45 2.75 -3.90 5.25 -7.25 5.60 -7.35 0.30 -0.10 2.35 0.55 4.50 1.50 8.30 3.75 15.05 6.80 18.40 8.35 1.95 0.90 5.40 2.45 7.75 3.50 11.10 4.90 32.30 14.60 32.65 14.95 0.20 0.20 0 9.35 -0.40 20.35 -0.40 10.95 -0.80 21.95 -0.90 24.45 l-0.10 4.50 -2 1 c-1.10 0.60 -3.45 1.65 -5.20 2.45 -1.75 0.80 -5.25 2.35 -7.75 3.55 -4.05 1.90 -16.05 7.40 -25.55 11.75 -1.90 0.90 -7.10 3.25 -11.55 5.30 -4.40 2.05 -8.25 3.70 -8.50 3.70 -0.25 0 -8.80 -11.75 -18.95 -26.10z"/>
  <path d="M173 397.70 c-0.55 -1.40 -1.70 -3.95 -5.45 -11.85 -1.40 -3 -2.55 -5.50 -2.55 -5.60 0 -0.10 -1.45 -3.15 -3.20 -6.85 -1.75 -3.65 -3.70 -7.75 -4.30 -9.15 -0.65 -1.35 -2.15 -4.60 -3.35 -7.15 -2.70 -5.80 -2.95 -5.35 4.35 -8.45 0.95 -0.40 2.95 -1.30 4.40 -1.95 1.40 -0.65 3.85 -1.75 5.35 -2.45 1.50 -0.70 4.05 -1.85 5.65 -2.55 1.55 -0.75 4.05 -1.85 5.50 -2.50 1.40 -0.65 3.80 -1.75 5.25 -2.40 1.40 -0.65 4.20 -1.90 6.10 -2.75 1.95 -0.90 4.35 -2.05 5.40 -2.60 1.10 -0.50 2.60 -0.95 3.35 -0.95 0.75 0 2.25 0.45 3.35 0.95 1.05 0.55 3.50 1.70 5.40 2.60 6 2.70 13.30 6 16.90 7.65 1.40 0.65 3.75 1.70 5.10 2.30 4.25 1.90 9.95 4.50 10.85 5 0.50 0.30 1.15 0.50 1.50 0.50 0.80 0 3.85 2.45 3.10 2.50 -0.70 0 -2.35 3.85 -1.95 4.50 0.15 0.20 -0.10 0.55 -0.55 0.70 -0.45 0.20 -0.70 0.65 -0.50 1.05 0.15 0.40 0.05 0.75 -0.25 0.75 -0.30 0 -0.45 0.30 -0.30 0.70 0.15 0.40 -0.05 0.85 -0.50 1 -0.40 0.20 -0.65 0.65 -0.45 1.05 0.15 0.40 0 0.75 -0.30 0.75 -0.30 0 -0.45 0.15 -0.25 0.30 0.15 0.20 -0.05 0.65 -0.45 1.05 -0.40 0.45 -0.65 1.10 -0.50 1.45 0.15 0.40 0.05 0.70 -0.25 0.70 -0.30 0 -0.35 0.25 -0.20 0.50 0.15 0.30 0.05 0.50 -0.25 0.50 -0.30 0 -0.40 0.25 -0.25 0.50 0.15 0.30 0.05 0.50 -0.25 0.50 -0.30 0 -0.40 0.25 -0.25 0.50 0.15 0.30 0.05 0.50 -0.25 0.50 -0.35 0 -0.50 0.35 -0.30 0.75 0.15 0.40 0 0.75 -0.30 0.75 -0.30 0 -0.40 0.15 -0.25 0.35 0.20 0.15 0 0.55 -0.45 0.90 -0.45 0.30 -0.85 1.15 -0.85 1.90 -0.05 0.75 -0.30 1.35 -0.50 1.35 -0.25 0 -0.25 0.25 -0.10 0.50 0.15 0.30 0.10 0.50 -0.20 0.50 -0.30 0 -0.40 0.35 -0.25 0.75 0.20 0.40 0.05 0.75 -0.30 0.75 -0.30 0 -0.40 0.25 -0.25 0.50 0.15 0.30 0.05 0.50 -0.25 0.50 -0.30 0 -0.40 0.25 -0.25 0.50 0.15 0.30 0.05 0.50 -0.25 0.50 -0.30 0 -0.40 0.25 -0.25 0.50 0.15 0.30 0.10 0.50 -0.20 0.50 -0.30 0 -0.40 0.30 -0.25 0.70 0.15 0.35 -0.10 0.80 -0.55 1 -0.50 0.15 -0.75 0.60 -0.55 1.05 0.15 0.40 0.05 0.75 -0.25 0.75 -0.30 0 -0.35 0.25 -0.20 0.50 0.15 0.30 0.05 0.50 -0.25 0.50 -0.30 0 -0.40 0.25 -0.25 0.50 0.15 0.30 0.10 0.50 -0.15 0.50 -0.65 0 -2.30 3.80 -1.90 4.40 0.15 0.25 -0.05 0.65 -0.50 0.80 -0.45 0.20 -0.70 0.65 -0.50 1.05 0.15 0.40 0.05 0.75 -0.25 0.75 -0.30 0 -0.35 0.25 -0.20 0.50 0.15 0.30 0.10 0.50 -0.20 0.50 -0.30 0 -0.40 0.35 -0.25 0.75 0.20 0.40 0.05 0.75 -0.30 0.75 -0.30 0 -0.40 0.25 -0.25 0.50 0.15 0.30 0.05 0.50 -0.30 0.50 -0.35 0 -0.50 0.15 -0.30 0.30 0.15 0.15 -0.10 0.70 -0.55 1.25 -0.80 0.90 -1.80 0.95 -26.20 0.95 l-25.40 0 -0.50 -1.30z"/>
  <path d="M298.25 374 c-0.80 -0.20 -3.70 -1.40 -6.40 -2.70 -2.65 -1.25 -4.95 -2.30 -5.05 -2.30 -0.15 0 -2.40 -1 -5 -2.25 -2.65 -1.25 -4.90 -2.25 -5.05 -2.25 -0.10 0 -2.40 -1.05 -5.10 -2.30 -7.15 -3.35 -8.15 -3.80 -16.40 -7.45 -4.10 -1.85 -7.85 -3.65 -8.35 -4.10 -0.75 -0.65 -0.70 -0.90 0.55 -3.30 0.75 -1.45 2 -4.05 2.75 -5.85 0.80 -1.80 2.65 -5.80 4.10 -8.95 1.50 -3.10 2.70 -5.75 2.70 -5.90 0 -0.10 1.35 -3.05 3 -6.50 1.65 -3.45 3 -6.30 3 -6.40 0 -0.10 1 -2.35 2.25 -5 1.25 -2.65 2.60 -5.60 3 -6.55 l0.70 -1.70 29.70 0 c22.95 0 29.85 0.15 30.45 0.65 0.45 0.30 4.70 6.25 9.50 13.10 4.80 6.90 11.80 16.85 15.60 22.20 3.75 5.35 6.80 9.90 6.80 10.10 0 0.25 -0.75 0.75 -1.60 1.10 -1.65 0.70 -31.15 14.05 -46.80 21.20 -11.15 5.05 -12.55 5.55 -14.35 5.15z"/>
  <path d="M245.40 264.35 c-3.50 -5 -10.75 -15.40 -16.20 -23.10 -5.40 -7.70 -11.55 -16.45 -13.70 -19.50 -2.10 -3 -6.40 -9.10 -9.45 -13.45 -3.10 -4.40 -5.65 -8.35 -5.70 -8.75 0 -0.45 1.30 -2.75 2.90 -5.05 1.65 -2.35 6.40 -9.20 10.60 -15.25 4.15 -6.05 9.95 -14.35 12.80 -18.50 2.85 -4.10 6.15 -8.95 7.35 -10.65 1.20 -1.75 2.45 -3.30 2.80 -3.45 0.65 -0.25 8.45 3.10 22.60 9.65 2.05 0.95 3.80 1.70 3.90 1.70 0.10 0 2.15 0.90 4.50 2 2.35 1.10 4.35 2 4.45 2 0.10 0 2.55 1.15 5.50 2.50 2.95 1.40 5.45 2.50 5.55 2.50 0.10 0 2.10 0.90 4.45 2 2.35 1.10 4.35 2 4.50 2 0.20 0 1.75 0.70 3.55 1.55 l3.20 1.55 0 25.75 0 25.70 -6.65 6.85 c-10.25 10.60 -35.50 37.15 -37.35 39.25 -0.85 1 -1.95 1.85 -2.45 1.85 -0.45 0 -3.35 -3.70 -7.15 -9.15z"/>
  <path d="M0 199.75 c0 -44.75 0.15 -69.75 0.50 -69.75 0.25 0 1.75 0.60 3.35 1.30 1.60 0.70 3.60 1.60 4.40 1.95 0.85 0.40 3.50 1.60 5.90 2.70 2.45 1.15 4.55 2.05 4.65 2.05 0.10 0 1.70 0.70 3.55 1.55 4 1.85 8.30 3.80 10.40 4.70 13.65 6.05 13.25 5.85 13.25 6.85 0 0.90 -0.35 1.80 -3.30 8.30 -2.15 4.65 -3.80 8.30 -4.95 10.85 -0.60 1.40 -1.80 3.95 -2.65 5.75 -0.80 1.80 -2.65 5.85 -4.10 9 -1.45 3.15 -3.50 7.65 -4.55 9.90 -1.10 2.30 -1.95 4.50 -1.95 4.85 0 0.60 1.25 3.50 5.05 11.65 1.10 2.30 1.95 4.25 1.95 4.35 0 0.10 1.15 2.55 2.50 5.50 1.40 2.95 2.50 5.40 2.50 5.50 0 0.10 0.90 2.15 2.05 4.60 1.10 2.40 2.30 5.10 2.70 5.90 0.35 0.85 1.60 3.50 2.70 5.90 1.15 2.45 2.05 4.75 2.05 5.15 0 0.40 -0.60 0.95 -1.30 1.20 -0.70 0.30 -2.55 1.10 -4.10 1.80 -4.60 2.15 -10.20 4.70 -12.35 5.70 -1.10 0.50 -7.80 3.50 -14.85 6.70 -7.05 3.20 -13 5.80 -13.15 5.80 -0.15 0 -0.25 -31.40 -0.25 -69.75z"/>
  <path d="M595 267.90 c-3.35 -1.55 -7.45 -3.45 -10.50 -4.80 -0.95 -0.40 -3.30 -1.50 -5.25 -2.35 -5.45 -2.55 -7.15 -3.20 -7.45 -2.85 -0.15 0.15 -0.30 0 -0.30 -0.30 0 -0.30 -0.50 -0.70 -1.10 -0.90 -0.65 -0.20 -2.90 -1.20 -5.10 -2.25 -2.15 -1.05 -4.10 -1.80 -4.35 -1.65 -0.25 0.15 -0.45 0.05 -0.45 -0.20 0 -0.55 -2.85 -1.80 -3.85 -1.75 -0.35 0 -0.65 -0.15 -0.65 -0.35 0 -0.20 -0.65 -0.65 -1.50 -0.95 -2.05 -0.70 -2.10 -0.40 1.30 -7.90 3.25 -7.10 3.90 -8.60 5.20 -11.40 0.75 -1.65 1.80 -3.90 2.25 -5 0.50 -1.10 1.55 -3.45 2.35 -5.25 2.60 -5.60 3.90 -8.55 6.95 -15.35 0.60 -1.35 1.25 -2.80 1.50 -3.25 0.55 -1.15 0.55 -2.20 0 -3.30 -0.50 -0.95 -2.35 -4.95 -4.05 -8.85 -0.60 -1.35 -1.75 -3.85 -2.50 -5.50 -0.75 -1.65 -1.90 -4.10 -2.50 -5.50 -0.60 -1.35 -1.65 -3.75 -2.35 -5.25 -0.70 -1.50 -1.65 -3.65 -2.15 -4.75 -0.50 -1.10 -1.80 -3.90 -2.90 -6.25 -3.20 -6.80 -4.10 -9 -4.40 -10.45 -0.25 -1.25 -0.10 -1.50 1.65 -2.20 1.05 -0.40 3.65 -1.55 5.80 -2.55 2.10 -1 3.95 -1.80 4.10 -1.80 0.10 0 2.30 -1 4.85 -2.20 2.55 -1.20 5.90 -2.75 7.40 -3.45 1.50 -0.65 4.25 -1.95 6.15 -2.80 1.85 -0.85 3.45 -1.55 3.55 -1.55 0.15 0 2.60 -1.15 5.55 -2.50 2.95 -1.40 5.85 -2.65 6.55 -2.80 l1.20 -0.30 0 70.05 c0 66.40 -0.05 70.05 -0.85 70 -0.50 0 -2.35 -0.70 -4.15 -1.55z"/>
  <path d="M444.75 149.50 c-1.45 -0.60 -17.65 -7.95 -19.95 -9.05 -1.05 -0.50 -2.10 -0.80 -2.35 -0.70 -0.20 0.15 -0.45 0.05 -0.55 -0.15 -0.20 -0.55 -10.40 -5.15 -10.40 -4.70 0 0.20 -0.20 0.10 -0.40 -0.20 -0.45 -0.70 -7.20 -3.85 -8.35 -3.90 -0.25 -0.05 -0.80 -0.35 -1.15 -0.70 -0.40 -0.35 -0.90 -0.50 -1.15 -0.35 -0.25 0.20 -0.45 -11.75 -0.45 -30.10 l0.05 -30.40 7.10 -3.20 c3.90 -1.80 8.70 -3.95 10.60 -4.85 21.10 -9.55 27.40 -12.25 28 -12 0.55 0.20 3.25 5.20 3.25 6 0 0.10 0.90 2.20 2.05 4.65 1.10 2.40 2.30 5.10 2.70 5.90 0.35 0.85 1.50 3.30 2.50 5.50 1.05 2.20 3.15 6.95 4.75 10.50 1.60 3.60 3.70 8.30 4.75 10.50 3.65 7.90 3.55 7 1.35 12.05 -1.10 2.45 -2.60 5.80 -3.35 7.45 -3.15 6.95 -4.05 8.90 -7.75 17.25 -7.80 17.45 -9.35 20.70 -9.80 20.80 -0.25 0.10 -0.90 -0.05 -1.45 -0.30z"/>
  <path d="M160.85 144.75 c-0.40 -0.40 -1.30 -1.55 -1.90 -2.60 -0.65 -1.05 -1.45 -2.25 -1.80 -2.65 -0.35 -0.40 -6.15 -8.60 -12.90 -18.25 -6.70 -9.60 -12.40 -17.70 -12.65 -18 -1.40 -1.75 -2.10 -3.10 -2.10 -4.05 0 -0.55 0.90 -2.90 2 -5.15 1.10 -2.25 2 -4.15 2 -4.25 0 -0.15 3.25 -7.25 11.60 -25.30 0.85 -1.80 2 -4.35 2.65 -5.75 3.30 -7.25 4.35 -9.20 5.15 -9.45 0.55 -0.20 3 0.65 5.90 2 2.70 1.25 6.60 3.05 8.60 4 2.05 0.95 3.80 1.70 3.90 1.70 0.10 0 1.70 0.70 3.55 1.55 1.90 0.85 4.55 2.10 5.90 2.70 1.40 0.60 3.85 1.75 5.50 2.50 1.65 0.75 3.90 1.75 5 2.25 1.10 0.50 3.30 1.50 4.90 2.20 l2.95 1.35 -0.35 25.85 c-0.20 14.20 -0.40 27.65 -0.45 29.85 l-0.10 4 -3.50 1.75 c-1.95 0.95 -4.50 2.20 -5.75 2.70 -1.20 0.55 -4.10 1.85 -6.45 2.90 -2.35 1.10 -4.90 2.25 -5.75 2.65 -2.80 1.25 -6 2.65 -9.95 4.45 -4.40 2 -4.90 2.10 -5.95 1.05z"/>
  <path d="M269.85 99.15 c-0.15 -0.25 -3.10 -6.80 -6.60 -14.65 -3.50 -7.85 -8.50 -18.95 -11.10 -24.70 -2.55 -5.75 -4.50 -10.65 -4.30 -10.85 0.45 -0.45 7.85 -3.90 24.65 -11.45 5.65 -2.55 13.90 -6.30 18.35 -8.30 4.45 -2.05 8.45 -3.70 8.85 -3.70 0.40 0 2.40 0.75 4.40 1.70 5.60 2.65 15.95 7.30 16.15 7.30 0.10 0 2.55 1.10 5.45 2.50 2.90 1.35 5.40 2.50 5.50 2.50 0.15 0 2.40 1 5 2.25 2.65 1.25 4.90 2.25 5.05 2.25 0.10 0 2.15 0.90 4.50 2 2.35 1.10 4.50 2 4.75 2 1.35 0 1.15 0.75 -2.95 9.65 -0.85 1.85 -1.55 3.45 -1.55 3.55 0 0.10 -0.75 1.85 -1.70 3.90 -1.75 3.70 -9.65 21.20 -13.45 29.80 l-2 4.60 -29.40 0 c-16.15 0 -29.50 -0.15 -29.60 -0.35z"/>
  <path d="M149.25 47.20 c-3.80 -1.80 -12.35 -5.70 -12.50 -5.70 -0.10 0 -2.05 -0.85 -4.35 -1.95 -2.25 -1.05 -8.75 -4 -14.40 -6.55 -5.65 -2.55 -11.40 -5.15 -12.85 -5.80 -1.40 -0.65 -3.15 -1.40 -3.85 -1.70 l-1.30 -0.50 0 -12.50 0 -12.50 37.05 0 c20.35 0 36.95 0.15 36.85 0.35 -0.10 0.25 -0.45 0.95 -0.75 1.65 -0.30 0.70 -1.20 2.70 -2.05 4.50 -2.40 5.20 -3.95 8.55 -5.10 11.25 -0.60 1.40 -1.65 3.70 -2.30 5.15 -1.15 2.45 -2.10 4.55 -4.90 10.75 -0.65 1.40 -1.85 4.05 -2.65 5.85 -0.85 1.80 -2.05 4.45 -2.65 5.90 -1.25 2.80 -1.75 3 -4.25 1.80z"/>
  <path d="M446.50 47.25 c0 -0.40 -0.20 -0.75 -0.50 -0.75 -0.25 0 -0.50 -0.30 -0.50 -0.70 0 -0.40 -0.40 -1.55 -0.95 -2.65 -0.50 -1.05 -1.40 -2.90 -1.95 -4.15 -1.50 -3.35 -3.30 -7.35 -5 -11 -0.80 -1.80 -2 -4.35 -2.60 -5.75 -0.60 -1.35 -1.65 -3.75 -2.35 -5.25 -0.70 -1.50 -1.65 -3.65 -2.15 -4.75 -0.50 -1.10 -1.60 -3.55 -2.50 -5.50 -0.90 -1.90 -1.85 -4.05 -2.15 -4.75 -0.30 -0.70 -0.65 -1.40 -0.75 -1.60 -0.10 -0.25 16.75 -0.40 37.35 -0.40 l37.55 0 0 11.95 0 11.95 -2.85 1.35 c-1.60 0.75 -6.25 2.90 -10.40 4.75 -4.10 1.85 -12.75 5.75 -19.15 8.70 -6.40 2.90 -11.75 5.30 -11.85 5.30 -0.10 0 -2.10 0.90 -4.45 2 -4.85 2.30 -4.80 2.25 -4.80 1.25z"/>
 </g>
</svg>